<?xml version="1.0" encoding="UTF-8" standalone="no"?>
<!-- Created with Inkscape (http://www.inkscape.org/) -->

<svg
   width="700"
   height="200"
   viewBox="0 0 185.20835 52.916668"
   version="1.1"
   id="svg1698"
   inkscape:version="1.1.2 (b8e25be833, 2022-02-05)"
   sodipodi:docname="design.svg"
   xmlns:inkscape="http://www.inkscape.org/namespaces/inkscape"
   xmlns:sodipodi="http://sodipodi.sourceforge.net/DTD/sodipodi-0.dtd"
   xmlns:xlink="http://www.w3.org/1999/xlink"
   xmlns="http://www.w3.org/2000/svg"
   xmlns:svg="http://www.w3.org/2000/svg">
  <sodipodi:namedview
     id="namedview1700"
     pagecolor="#ffffff"
     bordercolor="#666666"
     borderopacity="1.0"
     inkscape:pageshadow="2"
     inkscape:pageopacity="0.0"
     inkscape:pagecheckerboard="0"
     inkscape:document-units="mm"
     showgrid="false"
     units="px"
     inkscape:showpageshadow="false"
     inkscape:zoom="1.4142136"
     inkscape:cx="537.75469"
     inkscape:cy="131.1683"
     inkscape:window-width="1920"
     inkscape:window-height="1001"
     inkscape:window-x="-9"
     inkscape:window-y="-9"
     inkscape:window-maximized="1"
     inkscape:current-layer="layer2"
     showborder="false"
     fit-margin-top="0"
     fit-margin-left="0"
     fit-margin-right="0"
     fit-margin-bottom="0" />
  <defs
     id="defs1695" />
  <g
     inkscape:label="design"
     inkscape:groupmode="layer"
     id="layer1"
     style="display:none">
    <path
       id="rect7762"
       style="vector-effect:non-scaling-stroke;stroke-width:0.00350022;-inkscape-stroke:hairline"
       d="m 23.588989,15.875 c -2.357963,0 -4.639102,1.436354 -4.639102,6.554639 v 4.028694 h 7.508446 V 15.875 Z"
       sodipodi:nodetypes="sscccs" />
    <rect
       style="vector-effect:non-scaling-stroke;fill:#000000;fill-opacity:1;stroke:none;stroke-width:0.00350023;stroke-linecap:butt;stroke-linejoin:miter;stroke-miterlimit:4;stroke-dasharray:none;stroke-opacity:1;-inkscape-stroke:hairline"
       id="rect5719"
       width="2.0032427"
       height="5.8276401"
       x="25.456711"
       y="3.6956353"
       inkscape:transform-center-y="-18.191443" />
    <rect
       style="vector-effect:non-scaling-stroke;fill:#000000;fill-opacity:1;stroke:none;stroke-width:0.00350023;stroke-linecap:butt;stroke-linejoin:miter;stroke-miterlimit:4;stroke-dasharray:none;stroke-opacity:1;-inkscape-stroke:hairline"
       id="rect7400"
       width="2.0032427"
       height="5.8276401"
       x="0.17036295"
       y="15.140485"
       inkscape:transform-center-y="-12.863293"
       transform="rotate(-45)"
       inkscape:transform-center-x="12.863293" />
    <rect
       style="vector-effect:non-scaling-stroke;fill:#000000;fill-opacity:1;stroke:none;stroke-width:0.00350023;stroke-linecap:butt;stroke-linejoin:miter;stroke-miterlimit:4;stroke-dasharray:none;stroke-opacity:1;-inkscape-stroke:hairline"
       id="rect7402"
       width="2.0032427"
       height="5.8276401"
       x="-25.802519"
       y="5.3530707"
       inkscape:transform-center-y="-1.1491891e-06"
       transform="rotate(-90)"
       inkscape:transform-center-x="18.191443" />
    <rect
       style="vector-effect:non-scaling-stroke;fill:#000000;fill-opacity:1;stroke:none;stroke-width:0.00350023;stroke-linecap:butt;stroke-linejoin:miter;stroke-miterlimit:4;stroke-dasharray:none;stroke-opacity:1;-inkscape-stroke:hairline"
       id="rect7404"
       width="2.0032427"
       height="5.8276401"
       x="35.244122"
       y="-22.277245"
       inkscape:transform-center-y="-12.863294"
       transform="rotate(45)"
       inkscape:transform-center-x="-12.863293" />
    <rect
       style="vector-effect:non-scaling-stroke;fill:#000000;fill-opacity:1;stroke:none;stroke-width:0.00350023;stroke-linecap:butt;stroke-linejoin:miter;stroke-miterlimit:4;stroke-dasharray:none;stroke-opacity:1;-inkscape-stroke:hairline"
       id="rect7406"
       width="2.0032427"
       height="5.8276401"
       x="23.799278"
       y="-47.563595"
       transform="rotate(90)"
       inkscape:transform-center-x="-18.191444" />
    <path
       id="rect7430"
       style="vector-effect:non-scaling-stroke;fill:#000000;fill-opacity:1;stroke:none;stroke-width:0.00350022;stroke-linecap:butt;stroke-linejoin:miter;stroke-miterlimit:4;stroke-dasharray:none;stroke-opacity:1;-inkscape-stroke:hairline"
       d="m 18.949887,26.458333 v 7.9375 h -2.002253 v 2.645833 h 18.520834 v -2.645833 h -1.50169 v -7.9375 z"
       sodipodi:nodetypes="ccccccccc" />
    <path
       id="path9116"
       style="vector-effect:non-scaling-stroke;stroke-width:0.00350023;-inkscape-stroke:hairline"
       d="m 29.327677,15.875 c 2.357963,0 4.639101,1.436354 4.639101,6.554639 v 4.028694 H 26.458333 V 15.875 Z"
       sodipodi:nodetypes="sscccs" />
    <path
       id="rect9141"
       style="vector-effect:non-scaling-stroke;fill:#ffffff;fill-opacity:1;stroke:none;stroke-width:0.00350023;stroke-linecap:butt;stroke-linejoin:miter;stroke-miterlimit:4;stroke-dasharray:none;stroke-opacity:1;-inkscape-stroke:hairline"
       d="m 22.005892,22.044133 -0.748275,0.748275 3.613216,3.613215 V 38.1 h 1.058333 v -10.636043 -1.49655 l -0.876432,-0.876432 z"
       sodipodi:nodetypes="ccccccccc" />
    <rect
       style="vector-effect:non-scaling-stroke;fill:#000000;fill-opacity:1;stroke:none;stroke-width:0.00350023;stroke-linecap:butt;stroke-linejoin:miter;stroke-miterlimit:4;stroke-dasharray:none;stroke-opacity:1;-inkscape-stroke:hairline"
       id="rect9586"
       width="3.175"
       height="15.875"
       x="21.695831"
       y="37.041668" />
    <rect
       style="vector-effect:non-scaling-stroke;fill:#000000;fill-opacity:1;stroke:none;stroke-width:0.00350023;stroke-linecap:butt;stroke-linejoin:miter;stroke-miterlimit:4;stroke-dasharray:none;stroke-opacity:1;-inkscape-stroke:hairline"
       id="rect9830"
       width="3.175"
       height="11.1125"
       x="28.045828"
       y="37.041668" />
    <path
       id="rect11556"
       style="vector-effect:non-scaling-stroke;fill:#ffffff;fill-opacity:1;stroke:none;stroke-width:0.00350023;stroke-linecap:butt;stroke-linejoin:miter;stroke-miterlimit:4;stroke-dasharray:none;stroke-opacity:1;-inkscape-stroke:hairline"
       d="m 23.8125,12.08195 v 10.272241 l 1.058333,1.058333 2.116667,2.116667 V 38.1 h 1.058333 V 25.090975 l -3.175,-3.175 V 12.08195 Z" />
    <use
       x="0"
       y="0"
       xlink:href="#g13910"
       id="use13920"
       transform="translate(-1.7330431,-10.633093)"
       width="100%"
       height="100%" />
    <path
       id="path15859"
       style="vector-effect:non-scaling-stroke;fill:#ffffff;fill-opacity:1;stroke:none;stroke-width:0.00350023;stroke-linecap:butt;stroke-linejoin:miter;stroke-miterlimit:4;stroke-dasharray:none;stroke-opacity:1;-inkscape-stroke:hairline"
       d="m 38.527877,26.768921 v 0.256315 l -0.256315,-0.256315 z m -1.752865,0 1.058333,1.058333 h -6.47609 l -1.194759,1.195276 v 4.238453 l -1.058334,-0.01169 V 30.080865 28.5838 l 1.058334,-1.058334 0.756543,-0.756542 z"
       sodipodi:nodetypes="ccccccccccccccc" />
    <use
       x="0"
       y="0"
       xlink:href="#g13910"
       id="use13912"
       transform="translate(6.3500004)"
       width="100%"
       height="100%" />
    <path
       id="path16375"
       style="vector-effect:non-scaling-stroke;fill:#ffffff;fill-opacity:1;stroke:none;stroke-width:0.00350023;stroke-linecap:butt;stroke-linejoin:miter;stroke-miterlimit:4;stroke-dasharray:none;stroke-opacity:1;-inkscape-stroke:hairline"
       d="m 25.929166,11.205518 v 10.272241 l 1.058334,1.058333 2.116666,2.116667 h 2.952533 l 0.21911,-1.058334 H 29.542382 L 26.9875,21.039543 v -9.834025 z"
       sodipodi:nodetypes="cccccccccc" />
    <use
       x="0"
       y="0"
       xlink:href="#g13910"
       id="use13922"
       transform="translate(8.5635016,-8.8316464)"
       width="100%"
       height="100%" />
    <path
       id="path18357"
       style="vector-effect:non-scaling-stroke;fill:#ffffff;fill-opacity:1;stroke:none;stroke-width:0.00350023;stroke-linecap:butt;stroke-linejoin:miter;stroke-miterlimit:4;stroke-dasharray:none;stroke-opacity:1;-inkscape-stroke:hairline"
       d="m 14.389192,25.710587 v 0.256315 l 0.256315,-0.256315 z m 1.752865,0 -1.058333,1.058333 h 6.47609 l 1.194759,1.195276 v 5.898865 h 1.058334 V 29.022528 27.525463 L 22.754573,26.467129 21.99803,25.710587 Z" />
    <g
       id="g13910"
       transform="translate(-0.01306581)">
      <circle
         style="vector-effect:non-scaling-stroke;fill:#ffffff;fill-opacity:1;stroke:none;stroke-width:0.00350023;stroke-linecap:butt;stroke-linejoin:miter;stroke-miterlimit:4;stroke-dasharray:none;stroke-opacity:1;-inkscape-stroke:hairline"
         id="path13620"
         cx="23.296394"
         cy="32.955238"
         r="1.0583333" />
      <circle
         style="vector-effect:non-scaling-stroke;fill:#000000;fill-opacity:1;stroke:none;stroke-width:0.00350023;stroke-linecap:butt;stroke-linejoin:miter;stroke-miterlimit:4;stroke-dasharray:none;stroke-opacity:1;-inkscape-stroke:hairline"
         id="path13646"
         cx="23.296394"
         cy="32.955238"
         r="0.52916664" />
    </g>
    <text
       xml:space="preserve"
       style="font-style:normal;font-variant:normal;font-weight:bold;font-stretch:normal;font-size:18.8678px;line-height:1.25;font-family:'Cascadia Mono';-inkscape-font-specification:'Cascadia Mono Bold';display:inline;fill:#000000;fill-opacity:1;stroke:none;stroke-width:0.30053;stroke-opacity:1"
       x="58.233921"
       y="25.737177"
       id="text3217"><tspan
         sodipodi:role="line"
         id="tspan3215"
         style="font-style:normal;font-variant:normal;font-weight:bold;font-stretch:normal;font-size:18.8678px;font-family:'Cascadia Mono';-inkscape-font-specification:'Cascadia Mono Bold';fill:#000000;fill-opacity:1;stroke:none;stroke-width:0.30053;stroke-opacity:1"
         x="58.233921"
         y="25.737177">eMakerspace</tspan></text>
    <text
       xml:space="preserve"
       style="font-style:normal;font-variant:normal;font-weight:normal;font-stretch:normal;font-size:8.1165px;line-height:1.25;font-family:'Cascadia Mono';-inkscape-font-specification:'Cascadia Mono';display:inline;fill:#000000;fill-opacity:1;stroke:none;stroke-width:0.338581;stroke-opacity:1"
       x="136.29321"
       y="40.21751"
       id="text3221"><tspan
         sodipodi:role="line"
         id="tspan3219"
         style="font-style:normal;font-variant:normal;font-weight:normal;font-stretch:normal;font-size:8.1165px;font-family:'Cascadia Mono';-inkscape-font-specification:'Cascadia Mono';fill:#000000;fill-opacity:1;stroke:none;stroke-width:0.338581;stroke-opacity:1"
         x="136.29321"
         y="40.21751">ECE @ OST</tspan></text>
  </g>
  <g
     inkscape:groupmode="layer"
     id="layer2"
     inkscape:label="merged"
     style="display:inline">
    <rect
       style="fill:#000000;fill-opacity:1;stroke:none;stroke-width:0.481762;stroke-linecap:round;stroke-opacity:1"
       id="rect1089"
       width="185.20833"
       height="52.916668"
       x="0"
       y="0" />
    <g
       id="g4200"
       style="fill:#ffffff;fill-opacity:1">
      <path
         id="path1417"
         style="display:inline;vector-effect:non-scaling-stroke;fill:#ffffff;fill-opacity:1;stroke-width:0.0132292;-inkscape-stroke:hairline"
         d="m 89.154297,60 c -8.911986,0 -17.533203,5.428735 -17.533203,24.773438 v 12.40039 h 11.521484 l 2.859375,2.859372 4,4 v 5.65821 11.40234 c 1.235875,0.71446 1.997321,2.03341 1.998047,3.46094 0,2.20914 -1.790862,4 -4,4 -2.209138,0 -4,-1.79086 -4,-4 8.35e-4,-1.42903 0.763973,-2.74907 2.001953,-3.46289 v -15.40039 l -4.515625,-4.51758 H 71.621094 V 130 h -7.566406 v 10 H 82 v 60 H 94 V 144 99.800781 L 91.042969,96.84375 82.330078,88.130859 c -0.283653,0.112101 -0.579192,0.19139 -0.880859,0.236329 -2.209142,0 -4,-1.790864 -4,-4 0,-2.209142 1.790858,-4 4,-4 2.209137,0 4,1.790858 4,4 -0.04577,0.331879 -0.133038,0.656679 -0.259766,0.966796 l 7.582031,7.582032 1.916016,1.916015 3.3125,3.3125 V 103.80078 140 h 4 V 96.488281 l -8,-8 -4,-4 V 60 Z M 94,60 v 22.832031 l 12,12 V 140 v 4 38 h 12 v -42 h 16.05469 v -10 h -5.67578 v -24.82617 h -9.86329 L 114,109.69141 v 11.40039 a 3.9999998,3.9999998 0 0 1 2,3.46289 3.9999998,3.9999998 0 0 1 -4,4 3.9999998,3.9999998 0 0 1 -4,-4 3.9999998,3.9999998 0 0 1 2,-3.46289 v -7.40039 -5.65821 l 4,-4 2.85938,-2.85937 h 11.51953 V 84.773438 C 128.37891,65.428735 119.75769,60 110.8457,60 H 102 v 19.519531 l 9.65625,9.65625 h 5.24609 c 0.71432,-1.237228 2.03427,-1.999565 3.46289,-2 2.20915,0 4,1.790859 4,4 0,2.209138 -1.79085,4 -4,4 -1.42862,-4.31e-4 -2.74857,-0.762768 -3.46289,-2 H 110 l -8,-8 -4,-4 V 60 Z"
         transform="scale(0.26458333)" />
      <rect
         style="display:inline;vector-effect:non-scaling-stroke;fill:#ffffff;fill-opacity:1;stroke:none;stroke-width:0.00350023;stroke-linecap:butt;stroke-linejoin:miter;stroke-miterlimit:4;stroke-dasharray:none;stroke-opacity:1;-inkscape-stroke:hairline"
         id="rect1419"
         width="2.0032427"
         height="5.8276401"
         x="25.456711"
         y="3.6956353"
         inkscape:transform-center-y="-18.191443" />
      <rect
         style="display:inline;vector-effect:non-scaling-stroke;fill:#ffffff;fill-opacity:1;stroke:none;stroke-width:0.00350023;stroke-linecap:butt;stroke-linejoin:miter;stroke-miterlimit:4;stroke-dasharray:none;stroke-opacity:1;-inkscape-stroke:hairline"
         id="rect1421"
         width="2.0032427"
         height="5.8276401"
         x="0.17036295"
         y="15.140485"
         inkscape:transform-center-y="-12.863293"
         transform="rotate(-45)"
         inkscape:transform-center-x="12.863293" />
      <rect
         style="display:inline;vector-effect:non-scaling-stroke;fill:#ffffff;fill-opacity:1;stroke:none;stroke-width:0.00350023;stroke-linecap:butt;stroke-linejoin:miter;stroke-miterlimit:4;stroke-dasharray:none;stroke-opacity:1;-inkscape-stroke:hairline"
         id="rect1423"
         width="2.0032427"
         height="5.8276401"
         x="-25.802519"
         y="5.3530707"
         inkscape:transform-center-y="-1.1491891e-06"
         transform="rotate(-90)"
         inkscape:transform-center-x="18.191443" />
      <rect
         style="display:inline;vector-effect:non-scaling-stroke;fill:#ffffff;fill-opacity:1;stroke:none;stroke-width:0.00350023;stroke-linecap:butt;stroke-linejoin:miter;stroke-miterlimit:4;stroke-dasharray:none;stroke-opacity:1;-inkscape-stroke:hairline"
         id="rect1425"
         width="2.0032427"
         height="5.8276401"
         x="35.244122"
         y="-22.277245"
         inkscape:transform-center-y="-12.863294"
         transform="rotate(45)"
         inkscape:transform-center-x="-12.863293" />
      <rect
         style="display:inline;vector-effect:non-scaling-stroke;fill:#ffffff;fill-opacity:1;stroke:none;stroke-width:0.00350023;stroke-linecap:butt;stroke-linejoin:miter;stroke-miterlimit:4;stroke-dasharray:none;stroke-opacity:1;-inkscape-stroke:hairline"
         id="rect1427"
         width="2.0032427"
         height="5.8276401"
         x="23.799278"
         y="-47.563595"
         transform="rotate(90)"
         inkscape:transform-center-x="-18.191444" />
      <circle
         style="vector-effect:non-scaling-stroke;fill:#ffffff;fill-opacity:1;stroke:none;stroke-width:0.00350023;stroke-linecap:butt;stroke-linejoin:miter;stroke-miterlimit:4;stroke-dasharray:none;stroke-opacity:1;-inkscape-stroke:hairline"
         id="circle1864"
         cx="29.633329"
         cy="32.955238"
         r="0.52916664" />
      <circle
         style="vector-effect:non-scaling-stroke;fill:#ffffff;fill-opacity:1;stroke:none;stroke-width:0.00350023;stroke-linecap:butt;stroke-linejoin:miter;stroke-miterlimit:4;stroke-dasharray:none;stroke-opacity:1;-inkscape-stroke:hairline"
         id="circle1870"
         cx="31.84683"
         cy="24.123592"
         r="0.52916664" />
      <circle
         style="vector-effect:non-scaling-stroke;fill:#ffffff;fill-opacity:1;stroke:none;stroke-width:0.00350023;stroke-linecap:butt;stroke-linejoin:miter;stroke-miterlimit:4;stroke-dasharray:none;stroke-opacity:1;-inkscape-stroke:hairline"
         id="circle1455"
         cx="23.283329"
         cy="32.955238"
         r="0.52916664" />
      <circle
         style="vector-effect:non-scaling-stroke;fill:#ffffff;fill-opacity:1;stroke:none;stroke-width:0.00350023;stroke-linecap:butt;stroke-linejoin:miter;stroke-miterlimit:4;stroke-dasharray:none;stroke-opacity:1;-inkscape-stroke:hairline"
         id="circle2596"
         cx="21.550285"
         cy="22.322145"
         r="0.52916664" />
      <circle
         style="vector-effect:non-scaling-stroke;fill:#ffffff;fill-opacity:1;stroke:none;stroke-width:0.00350023;stroke-linecap:butt;stroke-linejoin:miter;stroke-miterlimit:4;stroke-dasharray:none;stroke-opacity:1;-inkscape-stroke:hairline"
         id="circle4182"
         cx="29.633329"
         cy="32.955238"
         r="0.52916664" />
    </g>
    <g
       aria-label="eMakerspace"
       id="text21505"
       style="font-weight:bold;font-size:18.8678px;font-family:'Cascadia Mono';-inkscape-font-specification:'Cascadia Mono Bold';fill:#ffffff;stroke:#ffffff;stroke-width:0.30053">
      <g
         id="path3454">
        <path
           style="color:#000000;-inkscape-font-specification:'Cascadia Mono Bold';stroke:none;-inkscape-stroke:none"
           d="m 64.627599,25.921433 q -2.533518,0 -3.915437,-1.308217 -1.381919,-1.317429 -1.381919,-3.777245 0,-2.395326 1.170025,-3.721968 1.179238,-1.326642 3.316606,-1.326642 2.091303,0 3.23369,1.225301 1.142386,1.225302 1.142386,3.565351 0,0.663321 -0.05528,1.262153 H 60.970121 V 20.10816 h 4.772226 q 0,-0.985768 -0.506703,-1.510898 -0.497491,-0.525129 -1.400345,-0.525129 -0.976556,0 -1.520111,0.700172 -0.534342,0.69096 -0.534342,1.971538 0,1.381919 0.7923,2.100517 0.801513,0.718598 2.27556,0.718598 0.663321,0 1.308217,-0.06449 0.644895,-0.0737 1.317429,-0.193468 l 0.239533,2.358475 q -0.939705,0.16583 -1.71358,0.211894 -0.773874,0.04606 -1.372706,0.04606 z"
           id="path3479" />
        <path
           style="color:#000000;-inkscape-font-specification:'Cascadia Mono Bold';stroke:none;-inkscape-stroke:none"
           d="m 63.816406,15.636719 c -1.456,0 -2.611627,0.458833 -3.427734,1.376953 h -0.002 c -0.809691,0.918075 -1.207031,2.200917 -1.207032,3.822265 10e-7,1.668016 0.474603,2.976205 1.429688,3.886719 0.954572,0.903662 2.302704,1.34961 4.017578,1.34961 0.403075,0 0.864603,-0.01603 1.382813,-0.04687 0.522991,-0.03113 1.099392,-0.103478 1.730468,-0.214844 l 0.136719,-0.02344 -0.269531,-2.658203 -0.160156,0.02734 c -0.445432,0.07932 -0.87998,0.1446 -1.306641,0.193359 -0.424233,0.04236 -0.854331,0.0625 -1.291016,0.0625 -0.958279,0 -1.675529,-0.231186 -2.175781,-0.679687 -0.183938,-0.166827 -0.161387,-0.516721 -0.277344,-0.742188 h 5.878907 l 0.01172,-0.136718 c 0.03732,-0.404278 0.05664,-0.829003 0.05664,-1.275391 0,-1.584484 -0.389468,-2.816204 -1.183594,-3.667969 -0.792778,-0.850317 -1.920202,-1.273437 -3.34375,-1.273437 z m 0,0.300781 c 1.364854,0 2.394597,0.394319 3.125,1.177734 0.729054,0.78197 1.101563,1.927312 1.101563,3.462891 0,0.390056 -0.01997,0.756056 -0.04883,1.111328 h -5.708985 c -0.112356,-0.318937 -0.353515,-0.520856 -0.353515,-0.945312 0,-0.215242 0.105973,-0.299041 0.128906,-0.486329 h 3.832031 v -0.15039 c 0,-0.681933 -0.177545,-1.229466 -0.546875,-1.613281 -0.362873,-0.383033 -0.87873,-0.572266 -1.509766,-0.572266 -0.686949,0 -1.249572,0.2566 -1.638671,0.757812 -0.237374,0.306949 -0.26195,0.823444 -0.34961,1.277344 H 60.82031 v 2.033203 h 1.015625 c 0.139875,0.379197 0.349662,0.70449 0.636719,0.964844 v 0.002 c 0.568432,0.509629 1.369838,0.75586 2.376953,0.75586 0.447084,0 0.88726,-0.02095 1.322266,-0.06445 h 0.002 c 0.38089,-0.04353 0.771149,-0.104486 1.166016,-0.171875 l 0.208984,2.056641 c -0.562529,0.09477 -1.089439,0.163597 -1.556641,0.191406 -0.51362,0.03057 -0.969866,0.04687 -1.365234,0.04687 -1.663146,0 -2.922562,-0.426952 -3.810547,-1.267578 -0.887472,-0.846056 -1.335937,-2.056232 -1.335937,-3.667969 0,-1.572416 0.382472,-2.772267 1.132812,-3.623046 0.756209,-0.850735 1.809304,-1.275391 3.203125,-1.275391 z m 0.01953,2.285156 c 0.57277,0 0.990568,0.161377 1.291016,0.478516 0.272599,0.282512 0.385755,0.724447 0.416016,1.255859 h -3.400391 c 0.08265,-0.382277 0.100375,-0.844833 0.291016,-1.091797 0.335639,-0.432348 0.787219,-0.642578 1.402343,-0.642578 z m -2.714843,2.035156 h 0.642578 c -0.02045,0.185598 -0.132813,0.28036 -0.132813,0.486329 0,0.353729 0.07878,0.648942 0.15625,0.945312 h -0.666015 z"
           id="path3481" />
      </g>
      <g
         id="path3456">
        <path
           style="color:#000000;-inkscape-font-specification:'Cascadia Mono Bold';stroke:none;-inkscape-stroke:none"
           d="m 74.503713,21.158419 0.276384,-2.653284 h 0.110553 l 0.958131,-5.850124 h 1.35428 l 0.147405,2.321624 H 76.77006 l -1.105535,6.181784 z m -4.191821,4.578758 V 12.655011 h 2.266347 v 13.082166 z m 3.657479,-4.578758 -1.105535,-6.181784 H 72.28343 l 0.147405,-2.321624 h 1.35428 l 0.958131,5.850124 h 0.0737 l 0.257958,2.653284 z m 3.086286,4.578758 V 12.655011 h 2.266347 v 13.082166 z"
           id="path3485" />
        <path
           style="color:#000000;-inkscape-font-specification:'Cascadia Mono Bold';stroke:none;-inkscape-stroke:none"
           d="M 70.162109,12.503906 V 25.886719 H 70.3125 72.728516 V 15.126953 h 0.0098 l 1.105469,6.181641 h 0.125 0.369141 0.902343 0.550782 l 1.105468,-6.181641 h 0.0098 v 10.759766 h 0.148437 2.417969 V 12.503906 h -2.128906 -0.4375 -1.185547 l -0.904297,5.523438 -0.904297,-5.523438 h -1.183593 -0.439454 z m 0.300782,0.300782 h 1.80664 l -0.146484,2.322265 h 0.304687 v 10.458984 h -1.964843 z m 2.265625,0 h 0.929687 l 0.955078,5.843749 -0.24414,2.359375 h -0.273438 l -1.105469,-6.18164 h -0.261718 z m 3.248046,0 h 0.929688 v 2.021484 h -0.261719 l -1.105469,6.18164 H 75.210937 L 74.982422,18.65625 h 0.03516 z m 1.386719,0 h 1.808594 V 25.585937 H 77.205078 V 15.126953 h 0.304688 z m -2.570312,7.019531 0.117187,1.183593 h -0.240234 z"
           id="path3487" />
      </g>
      <g
         id="path3458">
        <path
           style="color:#000000;-inkscape-font-specification:'Cascadia Mono Bold';stroke:none;-inkscape-stroke:none"
           d="M 87.668794,25.829305 87.4569,22.936488 87.420048,21.665122 v -1.907048 q 0,-0.783087 -0.672533,-1.142386 -0.663321,-0.368512 -1.980751,-0.405363 l -2.496667,-0.06449 0.184256,-2.266347 2.128155,0.02764 q 2.653285,0.03685 3.943076,1.050258 1.289791,1.004195 1.289791,2.938881 v 3.611415 l 1.35428,0.202681 v 2.026815 z m -3.307393,0.09213 q -1.556962,0 -2.422964,-0.764662 -0.866003,-0.764662 -0.866003,-2.174219 0,-1.639877 1.133174,-2.515093 1.133173,-0.875215 3.215264,-0.875215 0.801513,0 1.381919,0.08291 0.589619,0.08291 1.188451,0.257958 l -0.405363,1.9439 q -0.589619,-0.138192 -1.059471,-0.156618 -0.469853,-0.02764 -0.985769,-0.02764 -1.934687,0 -1.934687,1.105535 0,0.497491 0.350086,0.764662 0.350086,0.257958 1.02262,0.257958 0.810726,0 1.354281,-0.304022 0.543555,-0.304022 0.810726,-0.773875 0.276383,-0.469852 0.276383,-0.967343 v -0.608044 l 0.350087,2.505879 h -0.783088 l 0.322448,-0.294809 q -0.02764,0.847577 -0.386937,1.41877 -0.359299,0.56198 -1.013408,0.847577 -0.644895,0.276384 -1.547749,0.276384 z"
           id="path3491" />
        <path
           style="color:#000000;-inkscape-font-specification:'Cascadia Mono Bold';stroke:none;-inkscape-stroke:none"
           d="m 82.316406,15.726563 -0.208984,2.564453 2.654297,0.07031 c 0.864996,0.0242 1.504955,0.158569 1.912109,0.384766 l 0.002,0.002 c 0.345752,0.184717 0.453231,0.491605 0.501953,0.855469 -0.11766,-0.02182 -0.236314,-0.06164 -0.353515,-0.07813 v 0.002 c -0.396523,-0.05664 -0.864774,-0.08594 -1.404297,-0.08594 -1.409114,0 -2.515957,0.295559 -3.306641,0.90625 -0.79138,0.611229 -1.191406,1.506904 -1.191406,2.634766 0,0.970477 0.306294,1.747014 0.917969,2.287109 0.610826,0.539347 1.458911,0.802735 2.521484,0.802735 0.617237,0 1.154157,-0.09481 1.607422,-0.289063 0.459949,-0.200823 0.824477,-0.50451 1.080078,-0.904297 v -0.002 c 0.180686,-0.287246 0.227198,-0.676024 0.289063,-1.052734 h 0.0332 l 0.158203,2.158203 0.142578,-0.002 3.648437,-0.09766 v -2.302734 l -1.355468,-0.201172 v -3.482422 c 0,-1.322077 -0.450425,-2.35846 -1.345703,-3.05664 -0.898525,-0.705984 -2.247514,-1.057204 -4.035157,-1.082031 z m 0.275391,0.304687 1.988281,0.02539 c 1.750068,0.02431 3.032321,0.374306 3.853516,1.019531 0.82295,0.640726 1.232422,1.563915 1.232422,2.820312 v 3.740235 l 1.353515,0.203125 v 1.75 l -3.210937,0.08594 -0.136719,-1.851562 h 0.271484 l -0.248047,-1.767578 0.0059,0.002 0.464844,-2.230469 -0.132813,-0.03906 c -0.171131,-0.05002 -0.339556,-0.07236 -0.509766,-0.111328 -0.03077,-0.514757 -0.247,-0.948634 -0.703125,-1.193359 -0.477312,-0.265204 -1.157292,-0.398941 -2.048868,-0.42388 L 82.433594,18 Z m 2.828125,3.710937 c 0.52916,0 0.983977,0.02813 1.361328,0.08203 0.161151,0.02266 0.325919,0.07225 0.488281,0.105468 v 1.238282 0.5 0.01172 c -0.253733,-0.04584 -0.514524,-0.100659 -0.734375,-0.109375 h -0.002 c -0.315891,-0.01854 -0.646241,-0.02734 -0.992187,-0.02734 -0.659206,0 -1.165476,0.08926 -1.525391,0.294922 -0.359915,0.205665 -0.560547,0.548599 -0.560547,0.960937 0,0.366908 0.141008,0.67741 0.410156,0.882813 v 0.002 h 0.002 c 0.270385,0.19923 0.643761,0.287109 1.111329,0.287109 0.559266,0 1.037586,-0.104047 1.427734,-0.322266 0.381998,-0.213659 0.674313,-0.492838 0.867187,-0.832031 0.01728,-0.02943 0.01155,-0.06209 0.02734,-0.0918 l 0.0059,0.21875 0.01563,0.21875 -0.722657,0.66211 h 0.4375 c -0.05849,0.317953 -0.09433,0.657523 -0.242187,0.892578 -0.223405,0.348881 -0.533618,0.611262 -0.945313,0.791015 -0.406592,0.174255 -0.901712,0.263672 -1.488281,0.263672 -1.013374,0 -1.780377,-0.246361 -2.324219,-0.726562 -0.542995,-0.479453 -0.814453,-1.15357 -0.814453,-2.0625 0,-1.058639 0.354703,-1.84076 1.074219,-2.396485 0.720212,-0.556261 1.756042,-0.843749 3.123047,-0.84375 z m 2.15039,0.253907 c 0.08094,0.01972 0.160946,0.03041 0.242188,0.05273 l -0.238281,1.144531 -0.0039,-0.02539 v -0.0078 z m -2.029296,1.847656 c 0.34126,0 0.666546,0.0091 0.976562,0.02734 h 0.002 0.002 c 0.202155,0.0079 0.45074,0.05834 0.691407,0.101562 -0.02891,0.233513 -0.06492,0.465054 -0.199219,0.69336 v 0.002 c -0.163354,0.287277 -0.411165,0.527047 -0.753906,0.71875 -0.334591,0.187144 -0.75955,0.283203 -1.28125,0.283203 -0.428297,0 -0.735192,-0.08433 -0.931641,-0.228516 h -0.002 c -0.196152,-0.150618 -0.289063,-0.347248 -0.289063,-0.642578 0,-0.324684 0.123223,-0.536373 0.408203,-0.699219 0.284981,-0.162845 0.74637,-0.255859 1.376954,-0.255859 z"
           id="path3493" />
      </g>
      <g
         id="path3460">
        <path
           style="color:#000000;-inkscape-font-specification:'Cascadia Mono Bold';stroke:none;-inkscape-stroke:none"
           d="m 94.255941,22.263954 v -2.367688 h 1.105535 q 1.096322,0 1.796494,-0.377724 0.709385,-0.386938 1.114748,-1.243727 0.405363,-0.866003 0.589619,-2.303199 h 2.570373 q -0.39615,3.169201 -1.787286,4.735376 -1.391131,1.556962 -3.823309,1.556962 z m -1.538537,3.473223 V 11.917988 h 2.496667 v 13.819189 z m 6.384466,0 -2.395326,-4.753801 2.229495,-0.755449 3.123141,5.50925 z"
           id="path3497" />
        <path
           style="color:#000000;-inkscape-font-specification:'Cascadia Mono Bold';stroke:none;-inkscape-stroke:none"
           d="m 92.566406,11.767578 v 14.119141 h 0.150391 2.648437 v -3.472657 h 0.457032 c 0.488413,0 0.886297,-0.144706 1.316406,-0.238281 l 1.871094,3.710938 h 0.0918 3.214844 L 99.529297,20.96875 c 0.06743,-0.06696 0.164395,-0.09035 0.228515,-0.162109 0.956138,-1.076446 1.557808,-2.68515 1.824218,-4.816407 l 0.0215,-0.167968 h -2.873051 l -0.01758,0.130859 c -0.121554,0.948119 -0.315755,1.701467 -0.576172,2.257812 -0.25949,0.548467 -0.608227,0.934388 -1.050782,1.175782 -0.436987,0.235743 -1.009235,0.35884 -1.720703,0.359375 v -7.978516 z m 0.300781,0.300781 h 2.197266 v 7.677735 h -0.958984 v 2.667968 h 0.15039 0.808594 v 3.171875 h -2.197266 z m 6.111329,4.052735 h 2.265624 c -0.27328,1.99744 -0.83985,3.505637 -1.710937,4.486328 -0.04182,0.04681 -0.105201,0.06085 -0.148437,0.105469 l -0.378907,-0.667969 -2.511718,0.851562 0.507812,1.007813 c -0.387176,0.07802 -0.736489,0.208984 -1.179687,0.208984 h -0.457032 v -2.066406 c 0.746145,-5.13e-4 1.36865,-0.129644 1.863282,-0.396484 h 0.002 c 0.503291,-0.274523 0.89674,-0.716629 1.177734,-1.310547 v -0.002 c 0.264468,-0.565 0.445272,-1.322217 0.570313,-2.216797 z m -4.572266,3.925781 h 0.658203 v 2.066406 H 94.40625 Z m 4.460937,0.363281 0.271485,0.476563 c -0.513812,0.46217 -1.126709,0.777663 -1.828125,0.96289 l -0.392578,-0.779297 z m 0.414063,0.732422 2.51953,4.443359 h -2.607421 l -1.746093,-3.464843 c 0.698654,-0.193866 1.309028,-0.521576 1.833984,-0.978516 z"
           id="path3499" />
      </g>
      <g
         id="path3462">
        <path
           style="color:#000000;-inkscape-font-specification:'Cascadia Mono Bold';stroke:none;-inkscape-stroke:none"
           d="m 108.849,25.921433 q -2.53351,0 -3.91543,-1.308217 -1.38192,-1.317429 -1.38192,-3.777245 0,-2.395326 1.17002,-3.721968 1.17924,-1.326642 3.31661,-1.326642 2.0913,0 3.23369,1.225301 1.14239,1.225302 1.14239,3.565351 0,0.663321 -0.0553,1.262153 h -7.16755 V 20.10816 h 4.77222 q 0,-0.985768 -0.5067,-1.510898 -0.49749,-0.525129 -1.40035,-0.525129 -0.97655,0 -1.52011,0.700172 -0.53434,0.69096 -0.53434,1.971538 0,1.381919 0.7923,2.100517 0.80151,0.718598 2.27556,0.718598 0.66332,0 1.30822,-0.06449 0.64489,-0.0737 1.31743,-0.193468 l 0.23953,2.358475 q -0.9397,0.16583 -1.71358,0.211894 -0.77387,0.04606 -1.37271,0.04606 z"
           id="path3503" />
        <path
           style="color:#000000;-inkscape-font-specification:'Cascadia Mono Bold';stroke:none;-inkscape-stroke:none"
           d="m 108.03906,15.636719 c -1.456,0 -2.61358,0.458833 -3.42968,1.376953 -0.80969,0.918075 -1.20704,2.200917 -1.20704,3.822265 0,1.668016 0.47265,2.976205 1.42774,3.886719 0.94849,0.897904 2.29092,1.34006 3.99023,1.345703 0.0109,3.7e-5 0.0184,0.0039 0.0293,0.0039 0.40308,0 0.86265,-0.01603 1.38086,-0.04687 0.52299,-0.03113 1.09939,-0.103478 1.73047,-0.214844 l 0.13867,-0.02344 -0.27148,-2.658203 -0.15821,0.02734 c -0.44543,0.07933 -0.88193,0.1446 -1.30859,0.193359 -0.42424,0.04236 -0.85433,0.0625 -1.29102,0.0625 -0.95828,0 -1.67553,-0.231186 -2.17578,-0.679687 -0.18394,-0.166827 -0.16139,-0.516721 -0.27734,-0.742188 h 5.8789 l 0.0117,-0.136718 c 0.0373,-0.40428 0.0566,-0.829002 0.0566,-1.275391 0,-1.584484 -0.38751,-2.816204 -1.18164,-3.667969 -0.79278,-0.850317 -1.9202,-1.273437 -3.34375,-1.273437 z m 0,0.300781 c 1.36485,0 2.39264,0.394319 3.12305,1.177734 0.72906,0.78197 1.10156,1.927313 1.10156,3.462891 0,0.390054 -0.02,0.756057 -0.0488,1.111328 h -5.70898 c -0.11236,-0.318937 -0.35352,-0.520856 -0.35352,-0.945312 0,-0.215402 0.1079,-0.298922 0.13086,-0.486329 h 3.83008 v -0.15039 c 0,-0.681932 -0.17755,-1.229466 -0.54687,-1.613281 -0.36288,-0.383033 -0.87873,-0.572266 -1.50977,-0.572266 -0.68694,0 -1.24957,0.2566 -1.63867,0.757812 -0.23737,0.306949 -0.26195,0.823444 -0.34961,1.277344 h -1.02734 v 2.033203 h 1.01562 c 0.13988,0.379197 0.34966,0.70449 0.63672,0.964844 v 0.002 c 0.56843,0.509629 1.36984,0.75586 2.37695,0.75586 0.44709,0 0.88726,-0.02095 1.32227,-0.06445 h 0.002 c 0.38096,-0.04354 0.77302,-0.104468 1.16797,-0.171875 l 0.20703,2.056641 c -0.56252,0.09477 -1.08943,0.163597 -1.55664,0.191406 -0.51362,0.03057 -0.96791,0.04687 -1.36328,0.04687 -1.66314,0 -2.92451,-0.426951 -3.8125,-1.267578 -0.88747,-0.846056 -1.33594,-2.056232 -1.33594,-3.667969 0,-1.572416 0.38248,-2.772267 1.13281,-3.623046 0.75621,-0.850735 1.81126,-1.275391 3.20508,-1.275391 z m 0.0176,2.285156 c 0.57277,0 0.99057,0.161377 1.29102,0.478516 h 0.002 c 0.27258,0.282498 0.38379,0.724487 0.41406,1.255859 h -3.40039 c 0.0827,-0.382374 0.10229,-0.844786 0.29297,-1.091797 3.2e-4,-4.12e-4 -3.2e-4,-0.0015 0,-0.002 0.33547,-0.430877 0.7863,-0.640625 1.40039,-0.640625 z m -2.71484,2.035156 h 0.64258 c -0.0204,0.185598 -0.13282,0.28036 -0.13282,0.486329 0,0.353729 0.0788,0.648942 0.15625,0.945312 h -0.66601 z"
           id="path3505" />
      </g>
      <g
         id="path3464">
        <path
           style="color:#000000;-inkscape-font-specification:'Cascadia Mono Bold';stroke:none;-inkscape-stroke:none"
           d="m 118.6422,21.536143 -0.57119,-3.362669 h 0.83836 q 0.14741,-2.386113 2.49667,-2.386113 1.39113,0 2.12816,1.02262 0.74623,1.02262 0.74623,2.948093 h -2.47824 q 0,-0.866002 -0.32245,-1.243727 -0.31323,-0.377724 -1.02262,-0.377724 -0.91206,0 -1.36349,0.884428 -0.45143,0.884428 -0.45143,2.515092 z m -4.55112,4.201034 v -2.137368 h 6.8359 v 2.137368 z m 2.06367,0 v -9.765561 h 2.11894 l 0.36851,2.800689 v 6.964872 z m -1.69515,-7.628193 v -2.137368 h 3.68511 l 0.18426,2.137368 z"
           id="path3509" />
        <path
           style="color:#000000;-inkscape-font-specification:'Cascadia Mono Bold';stroke:none;-inkscape-stroke:none"
           d="m 121.40625,15.636719 c -0.80852,0 -1.45219,0.208456 -1.90234,0.638672 -0.41669,0.398238 -0.616,1.014153 -0.68946,1.748046 h -0.11914 l -0.28906,-2.201171 h -0.12305 -2.27929 -1.69532 v 2.4375 h 0.15039 1.54493 v 5.189453 h -2.0625 v 2.4375 h 0.15039 1.91211 2.78906 2.28516 v -2.4375 h -2.28516 v -1.91211 c 0,-1.073242 0.14964,-1.890954 0.43359,-2.447265 0.28233,-0.55312 0.671,-0.802735 1.23047,-0.802735 0.44626,0 0.73301,0.113356 0.90625,0.322266 l 0.002,0.002 c 0.17815,0.208687 0.28711,0.5878 0.28711,1.146484 v 0.150391 h 2.7793 v -0.150391 c 0,-1.302272 -0.25208,-2.317208 -0.77539,-3.035156 -0.51757,-0.718126 -1.28576,-1.085937 -2.25,-1.085937 z m 0,0.300781 c 0.8906,0 1.54073,0.315571 2.00586,0.960937 0.44627,0.611559 0.65717,1.542447 0.68164,2.708985 h -2.18164 c -0.0216,-0.499213 -0.0955,-0.927632 -0.31836,-1.189453 -0.24448,-0.293809 -0.63787,-0.431641 -1.13672,-0.431641 -0.65661,0 -1.17846,0.340681 -1.49805,0.966797 -0.11319,0.22176 -0.0946,0.637976 -0.16601,0.919922 v -1.111328 l -0.0566,-0.4375 h 0.31445 l 0.008,-0.140625 c 0.0476,-0.770854 0.27027,-1.326252 0.65235,-1.691407 0.38207,-0.365154 0.93766,-0.554687 1.69531,-0.554687 z m -6.79687,0.183594 h 1.39453 v 1.83789 h -1.39453 z m 1.69531,0 h 1.70312 l 0.15821,1.83789 h -1.86133 z m 0,2.138672 h 1.6289 l 0.5586,3.289062 v 1.900391 h -2.1875 z m 1.94336,0.06445 h 0.18359 l 0.0605,0.457031 v 0.974609 z M 114.24219,23.75 h 1.76172 v 1.835937 h -1.76172 z m 2.0625,0 h 2.1875 v 1.835937 h -2.1875 z m 2.48828,0 h 1.98437 v 1.835937 h -1.98437 z"
           id="path3511" />
      </g>
      <g
         id="path3466">
        <path
           style="color:#000000;-inkscape-font-specification:'Cascadia Mono Bold';stroke:none;-inkscape-stroke:none"
           d="m 129.33826,25.921433 q -1.11475,0 -1.98076,-0.0737 -0.85678,-0.06449 -1.51089,-0.202681 l 0.29481,-2.386113 q 1.16081,0.147404 1.95311,0.221107 0.7923,0.0737 1.24373,0.0737 1.20687,0 1.74121,-0.16583 0.54356,-0.175043 0.54356,-0.552768 0,-0.221107 -0.13819,-0.350086 -0.1382,-0.128979 -0.44222,-0.221107 l -3.08628,-0.921279 q -0.97656,-0.29481 -1.47405,-0.875216 -0.48828,-0.580406 -0.48828,-1.566174 0,-1.575388 1.32664,-2.34005 1.32665,-0.773874 4.02599,-0.773874 0.62647,0 1.29901,0.04606 0.68174,0.04606 1.43719,0.138191 l -0.26717,2.312411 q -0.83836,-0.0737 -1.46483,-0.10134 -0.62647,-0.02764 -1.05947,-0.02764 -1.39113,0 -2.02682,0.165831 -0.62647,0.156617 -0.62647,0.525129 0,0.23032 0.12898,0.359299 0.13819,0.119766 0.42379,0.202681 l 2.64407,0.755449 q 1.26215,0.359299 1.87941,1.004195 0.62647,0.635682 0.62647,1.676728 0,1.556962 -1.23451,2.321624 -1.23452,0.755449 -3.76803,0.755449 z"
           id="path3515" />
        <path
           style="color:#000000;-inkscape-font-specification:'Cascadia Mono Bold';stroke:none;-inkscape-stroke:none"
           d="m 131.3457,15.636719 c -1.81391,0 -3.17881,0.256656 -4.10156,0.794922 -0.92224,0.532115 -1.40039,1.376834 -1.40039,2.46875 0,0.681988 0.17094,1.245056 0.52344,1.664062 h 0.002 c 0.3551,0.414279 0.87257,0.719491 1.54297,0.921875 h 0.002 L 131,22.408203 c 0.1901,0.05761 0.31781,0.126839 0.38281,0.1875 0.0608,0.05676 0.0898,0.124135 0.0898,0.240234 0,0.08987 -0.0252,0.152977 -0.0918,0.220704 -0.0666,0.06773 -0.18148,0.133985 -0.34766,0.1875 -0.32583,0.100847 -0.89852,0.160156 -1.69531,0.160156 -0.29278,0 -0.70294,-0.02533 -1.22852,-0.07422 -0.52573,-0.04891 -1.17647,-0.122578 -1.94921,-0.220703 l -0.14844,-0.01758 -0.33203,2.671875 0.13672,0.0293 c 0.44443,0.09389 0.95295,0.161696 1.52929,0.205078 0.58277,0.0496 1.24571,0.07422 1.99219,0.07422 1.70394,0 2.98561,-0.249825 3.84766,-0.777344 v -0.002 c 0.86182,-0.533815 1.30468,-1.371531 1.30468,-2.449219 0,-0.723475 -0.22239,-1.326443 -0.66796,-1.779297 -0.43725,-0.456819 -1.08732,-0.800674 -1.94532,-1.044922 l -2.64453,-0.755859 c -0.17533,-0.0509 -0.29427,-0.113112 -0.36133,-0.169922 -0.052,-0.05397 -0.082,-0.125448 -0.082,-0.248047 0,-0.08026 0.0237,-0.13393 0.10156,-0.199219 0.0779,-0.06529 0.21479,-0.130844 0.41016,-0.179687 h 0.002 c 0.39789,-0.103796 1.06684,-0.16211 1.98829,-0.16211 0.28546,0 0.63661,0.009 1.05273,0.02734 0.41472,0.0183 0.9017,0.05257 1.45898,0.101563 l 0.14454,0.01367 0.30273,-2.607422 -0.14844,-0.01758 c -0.50604,-0.06171 -0.98782,-0.107763 -1.44531,-0.138672 -0.45153,-0.03092 -0.88922,-0.04687 -1.31055,-0.04687 z m 0,0.300781 c 0.41397,0 0.84388,0.01443 1.28907,0.04492 0.40464,0.02734 0.83665,0.07307 1.28125,0.125 l -0.23438,2.01758 c -0.49211,-0.04162 -0.94553,-0.07509 -1.32422,-0.0918 -0.41917,-0.01849 -0.77454,-0.0293 -1.0664,-0.0293 -0.93339,0 -1.61476,0.05456 -2.06446,0.171875 -0.22132,0.05552 -0.39876,0.130815 -0.52929,0.240235 -0.13094,0.109754 -0.20899,0.264275 -0.20899,0.429687 0,0.181596 0.0543,0.349188 0.17188,0.466797 l 0.004,0.002 0.004,0.0039 c 0.11787,0.102159 0.2777,0.175507 0.48047,0.234375 l 2.64453,0.75586 c 0.82487,0.234816 1.42673,0.559849 1.8125,0.96289 h 0.002 v 0.002 c 0.38886,0.394579 0.58399,0.906425 0.58399,1.570313 0,0.997702 -0.38076,1.707647 -1.16407,2.193359 -0.78397,0.479745 -2.01538,0.734375 -3.68945,0.734375 -0.73985,0 -1.39488,-0.02555 -1.9668,-0.07422 h -0.002 c -0.5142,-0.0387 -0.95534,-0.103464 -1.35547,-0.181641 l 0.25977,-2.089844 c 0.69803,0.08736 1.31678,0.157556 1.80664,0.203125 0.53082,0.04938 0.94868,0.07422 1.25781,0.07422 0.81146,0 1.39834,-0.05183 1.78516,-0.171875 h 0.002 c 0.1962,-0.06318 0.35416,-0.147143 0.46875,-0.263672 0.11459,-0.116529 0.17969,-0.269693 0.17969,-0.431641 0,-0.178709 -0.0621,-0.345727 -0.18555,-0.460937 -0.11927,-0.11131 -0.28669,-0.188676 -0.50195,-0.253906 v -0.002 L 128,21.199219 c -0.63064,-0.190383 -1.09412,-0.469384 -1.40234,-0.828125 -0.29854,-0.354868 -0.45313,-0.838336 -0.45313,-1.470703 0,-1.008078 0.40621,-1.721506 1.25195,-2.208985 0.84612,-0.493565 2.16402,-0.753906 3.94922,-0.753906 z"
           id="path3517" />
      </g>
      <g
         id="path3468">
        <path
           style="color:#000000;-inkscape-font-specification:'Cascadia Mono Bold';stroke:none;-inkscape-stroke:none"
           d="M 137.01251,29.975062 V 15.971616 h 2.31241 l 0.18426,2.063666 v 11.93978 z m 5.10389,-4.053629 q -1.02262,0 -1.63988,-0.488278 -0.61726,-0.488278 -0.76466,-1.464834 h -0.866 l 0.66332,-3.104712 q 0,1.418771 0.42379,2.063666 0.42379,0.644896 1.48326,0.644896 0.9397,0 1.41877,-0.681747 0.48827,-0.681747 0.48827,-2.026815 0,-1.299003 -0.49749,-2.008388 -0.49749,-0.718598 -1.40955,-0.718598 -0.94892,0 -1.42799,0.654108 -0.47906,0.654108 -0.47906,2.072878 l -0.57119,-3.123136 h 0.71859 q 0.17505,-0.985769 0.74624,-1.464834 0.58041,-0.488278 1.69515,-0.488278 1.83335,0 2.83754,1.326642 1.01341,1.326642 1.01341,3.749606 0,2.441391 -1.01341,3.749607 -1.00419,1.308217 -2.81911,1.308217 z"
           id="path3521" />
        <path
           style="color:#000000;-inkscape-font-specification:'Cascadia Mono Bold';stroke:none;-inkscape-stroke:none"
           d="m 142.09766,15.636719 c -0.7651,0 -1.36782,0.167411 -1.79102,0.523437 -0.35928,0.301332 -0.55577,0.79452 -0.69336,1.34961 l -0.15039,-1.6875 h -2.60156 V 30.125 h 0.15039 2.64844 v -5.949219 c 0.12586,0.565991 0.33043,1.064734 0.72265,1.375 0.44318,0.350568 1.02872,0.521485 1.73438,0.521485 1.24605,0 2.24141,-0.460359 2.9375,-1.367188 0.70332,-0.907919 1.04492,-2.193413 1.04492,-3.841797 0,-1.636257 -0.34253,-2.920348 -1.04492,-3.839844 -0.69602,-0.919514 -1.69856,-1.386718 -2.95703,-1.386718 z m 0,0.300781 c 1.18598,0 2.07585,0.418238 2.71875,1.267578 0.64881,0.849358 0.98242,2.063845 0.98242,3.658203 0,1.606801 -0.33453,2.821836 -0.98242,3.658203 -0.64284,0.837459 -1.52538,1.25 -2.69922,1.25 -0.65783,0 -1.16704,-0.156562 -1.54688,-0.457031 -0.37784,-0.298889 -0.61478,-0.745057 -0.70898,-1.369141 l -0.0195,-0.126953 h -0.18164 v -1.511718 c 0.0659,0.206625 0.0448,0.548449 0.14648,0.703125 0.31409,0.477958 0.87257,0.71289 1.60938,0.71289 0.6628,0 1.19506,-0.253781 1.54101,-0.746094 0.35212,-0.492474 0.51563,-1.199185 0.51563,-2.113281 0,-0.885184 -0.16702,-1.585525 -0.52344,-2.09375 -0.35612,-0.514399 -0.8857,-0.783203 -1.5332,-0.783203 -0.66714,0 -1.20151,0.240617 -1.54883,0.714844 -0.14259,0.194688 -0.12586,0.605534 -0.20703,0.880859 v -1.552734 l -0.0117,-0.138672 h 0.13476 l 0.0215,-0.123047 c 0.11251,-0.633602 0.34761,-1.08533 0.69531,-1.376953 0.35068,-0.29501 0.87644,-0.453125 1.59766,-0.453125 z m -4.93555,0.183594 h 2.02539 l 0.13086,1.46875 h -0.56055 l 0.59766,3.269531 -0.69531,3.259766 h 0.69921 v 5.705078 h -2.19726 z m 1.95703,1.769531 h 0.22656 l 0.0137,0.150391 v 1.169921 z m 2.29688,0.396484 c 0.56857,0 0.97991,0.210567 1.2871,0.654297 0.30691,0.437622 0.47071,1.075057 0.47071,1.921875 0,0.878529 -0.16267,1.522989 -0.46094,1.939453 v 0.002 c -0.29281,0.416683 -0.70675,0.617188 -1.29687,0.617188 -0.67583,0 -1.10646,-0.19427 -1.35743,-0.576172 -0.25475,-0.387665 -0.39843,-1.051537 -0.39843,-1.982422 0,-0.928933 0.16044,-1.590085 0.44921,-1.984375 0.29144,-0.397916 0.70856,-0.591797 1.30665,-0.591797 z m -2.05665,3.996094 v 1.535156 h -0.32812 z"
           id="path3523" />
      </g>
      <g
         id="path3470">
        <path
           style="color:#000000;-inkscape-font-specification:'Cascadia Mono Bold';stroke:none;-inkscape-stroke:none"
           d="m 154.0009,25.829305 -0.21189,-2.892817 -0.0368,-1.271366 v -1.907048 q 0,-0.783087 -0.67254,-1.142386 -0.66332,-0.368512 -1.98075,-0.405363 l -2.49667,-0.06449 0.18426,-2.266347 2.12816,0.02764 q 2.65328,0.03685 3.94307,1.050258 1.28979,1.004195 1.28979,2.938881 v 3.611415 l 1.35428,0.202681 v 2.026815 z m -3.30739,0.09213 q -1.55696,0 -2.42297,-0.764662 -0.866,-0.764662 -0.866,-2.174219 0,-1.639877 1.13318,-2.515093 1.13317,-0.875215 3.21526,-0.875215 0.80151,0 1.38192,0.08291 0.58962,0.08291 1.18845,0.257958 l -0.40536,1.9439 q -0.58962,-0.138192 -1.05947,-0.156618 -0.46986,-0.02764 -0.98577,-0.02764 -1.93469,0 -1.93469,1.105535 0,0.497491 0.35009,0.764662 0.35008,0.257958 1.02262,0.257958 0.81072,0 1.35428,-0.304022 0.54355,-0.304022 0.81072,-0.773875 0.27639,-0.469852 0.27639,-0.967343 v -0.608044 l 0.35008,2.505879 h -0.78309 l 0.32245,-0.294809 q -0.0276,0.847577 -0.38693,1.41877 -0.3593,0.56198 -1.01341,0.847577 -0.6449,0.276384 -1.54775,0.276384 z"
           id="path3527" />
        <path
           style="color:#000000;-inkscape-font-specification:'Cascadia Mono Bold';stroke:none;-inkscape-stroke:none"
           d="m 148.64844,15.726563 -0.20899,2.564453 2.6543,0.07031 c 0.865,0.0242 1.50496,0.158569 1.91211,0.384766 l 0.002,0.002 h 0.002 c 0.3457,0.184689 0.45124,0.491694 0.5,0.855469 -0.11766,-0.02182 -0.23632,-0.06164 -0.35352,-0.07813 v 0.002 c -0.39653,-0.05664 -0.86282,-0.08594 -1.40234,-0.08594 -1.40912,0 -2.51792,0.295559 -3.3086,0.90625 -0.79138,0.611229 -1.1914,1.506904 -1.1914,2.634766 0,0.970477 0.30629,1.747014 0.91796,2.287109 0.61084,0.539347 1.45892,0.802735 2.52149,0.802735 0.61723,0 1.15415,-0.09481 1.60742,-0.289063 0.45995,-0.200823 0.82448,-0.50451 1.08008,-0.904297 l 0.002,-0.002 c 0.18068,-0.287208 0.22525,-0.676086 0.28711,-1.052734 h 0.0332 l 0.15821,2.158203 0.14258,-0.002 3.64843,-0.09766 v -2.302734 l -1.35547,-0.201172 v -3.482422 c 1e-5,-1.322077 -0.45042,-2.35846 -1.3457,-3.05664 -0.89852,-0.705984 -2.24752,-1.057204 -4.03515,-1.082031 z m 0.27734,0.304687 1.98633,0.02539 c 1.75006,0.02431 3.03232,0.374306 3.85351,1.019531 0.82295,0.640726 1.23243,1.563915 1.23243,2.820312 v 3.740235 l 1.35351,0.203125 v 1.75 l -3.21094,0.08594 -0.13671,-1.851562 h 0.27148 l -0.24805,-1.767578 0.006,0.002 0.46485,-2.230469 -0.13282,-0.03906 c -0.17113,-0.05002 -0.33955,-0.07236 -0.50976,-0.111328 -0.0308,-0.514757 -0.247,-0.948635 -0.70313,-1.193359 -0.47727,-0.265152 -1.15725,-0.398889 -2.04882,-0.423828 L 148.76562,18 Z m 2.82813,3.710937 c 0.52915,0 0.98202,0.02813 1.35937,0.08203 0.16115,0.02266 0.32592,0.07225 0.48828,0.105468 v 1.238282 0.5 0.01172 c -0.25373,-0.04584 -0.51452,-0.100659 -0.73437,-0.109375 h -0.002 c -0.31589,-0.01854 -0.64624,-0.02734 -0.99218,-0.02734 -0.65921,0 -1.16548,0.08926 -1.52539,0.294922 -0.35992,0.205665 -0.56055,0.548598 -0.56055,0.960937 0,0.366908 0.141,0.67741 0.41016,0.882813 v 0.002 h 0.002 c 0.27038,0.199231 0.64376,0.287109 1.11133,0.287109 0.55926,0 1.03758,-0.104048 1.42773,-0.322266 0.382,-0.21366 0.67432,-0.492838 0.86719,-0.832031 0.0173,-0.02943 0.0115,-0.06209 0.0273,-0.0918 l 0.006,0.21875 0.0156,0.21875 -0.72266,0.66211 h 0.4375 c -0.0585,0.31795 -0.0943,0.657525 -0.24219,0.892578 -0.2234,0.348881 -0.53361,0.611262 -0.94531,0.791015 -0.4066,0.174255 -0.90171,0.263672 -1.48828,0.263672 -1.01337,0 -1.78037,-0.24636 -2.32422,-0.726562 -0.54299,-0.479453 -0.81445,-1.15357 -0.81445,-2.0625 0,-1.058639 0.3547,-1.84076 1.07422,-2.396485 0.72021,-0.55626 1.75799,-0.843749 3.125,-0.84375 z m 2.14843,0.253907 c 0.0809,0.01972 0.16095,0.03041 0.24219,0.05273 l -0.23828,1.144531 -0.004,-0.02539 v -0.0078 z m -2.02929,1.847656 c 0.34125,0 0.66654,0.0091 0.97656,0.02734 h 0.002 0.002 c 0.20215,0.0079 0.45073,0.05834 0.6914,0.101562 -0.0289,0.233513 -0.0649,0.465054 -0.19922,0.69336 v 0.002 c -0.16335,0.287277 -0.41117,0.527047 -0.7539,0.71875 -0.3346,0.187144 -0.75956,0.283203 -1.28125,0.283203 -0.4283,0 -0.7352,-0.08433 -0.93164,-0.228516 h -0.002 c -0.19615,-0.150618 -0.28906,-0.347248 -0.28906,-0.642578 0,-0.324684 0.12322,-0.536373 0.4082,-0.699219 0.28498,-0.162845 0.74637,-0.255859 1.37696,-0.255859 z"
           id="path3529" />
      </g>
      <g
         id="path3472">
        <path
           style="color:#000000;-inkscape-font-specification:'Cascadia Mono Bold';stroke:none;-inkscape-stroke:none"
           d="m 164.40214,25.921433 q -2.66249,0 -4.11811,-1.308217 -1.45563,-1.317429 -1.45563,-3.777245 0,-2.395326 1.32665,-3.721968 1.32664,-1.326642 3.78645,-1.326642 1.5109,0 2.5888,0.589618 1.08711,0.589619 1.53854,1.667516 l -1.80571,1.437196 q -0.40536,-0.635683 -1.03183,-0.976556 -0.61726,-0.350087 -1.3635,-0.350087 -1.13317,0 -1.76885,0.672534 -0.62647,0.672534 -0.62647,1.916261 0,1.372706 0.81993,2.091304 0.81994,0.718598 2.33084,0.718598 0.66332,0 1.31743,-0.06449 0.66332,-0.06449 1.28979,-0.175043 l 0.25796,2.330837 q -0.74624,0.16583 -1.53854,0.221107 -0.7923,0.05528 -1.54775,0.05528 z"
           id="path3533" />
        <path
           style="color:#000000;-inkscape-font-specification:'Cascadia Mono Bold';stroke:none;-inkscape-stroke:none"
           d="m 163.94141,15.636719 c -1.66689,0 -2.97532,0.453831 -3.89258,1.371093 -0.91641,0.916402 -1.3711,2.203502 -1.3711,3.828125 0,1.669517 0.50095,2.979165 1.50586,3.888672 1.00429,0.902591 2.41915,1.347657 4.21875,1.347657 0.5073,0 1.02709,-0.01956 1.5586,-0.05664 0.53534,-0.03735 1.05551,-0.11238 1.56054,-0.224609 l 0.13086,-0.0293 -0.29101,-2.623047 -0.15625,0.02734 c -0.41363,0.07299 -0.84078,0.131194 -1.2793,0.173828 -0.43114,0.04251 -0.86539,0.06445 -1.30273,0.06445 -0.98345,0 -1.72021,-0.23273 -2.23243,-0.681641 -0.51095,-0.447805 -0.76757,-1.093297 -0.76757,-1.978515 0,-0.803138 0.20052,-1.398001 0.58593,-1.8125 0.39317,-0.415963 0.93249,-0.626954 1.65821,-0.626954 0.47399,0 0.90016,0.11146 1.28906,0.332032 h 0.002 0.002 c 0.39515,0.215009 0.71864,0.521315 0.97656,0.925781 l 0.0898,0.140625 2.02539,-1.611328 -0.0449,-0.105469 c -0.31359,-0.74878 -0.85537,-1.333047 -1.60547,-1.740234 -0.74453,-0.407264 -1.63334,-0.609375 -2.66015,-0.609375 z m 0,0.300781 c 0.98772,0 1.82491,0.193373 2.51757,0.572266 0.6635,0.359861 1.10403,0.875747 1.39649,1.513671 l -1.58789,1.261719 c -0.2664,-0.372739 -0.5734,-0.697746 -0.96289,-0.910156 -0.43411,-0.246211 -0.91651,-0.371094 -1.4375,-0.371094 -0.78518,0 -1.42255,0.239955 -1.87696,0.720703 h -0.002 c -0.44913,0.48216 -0.66601,1.165151 -0.66601,2.019532 0,0.945054 0.2888,1.6928 0.87109,2.203125 0.58103,0.509218 1.3986,0.755859 2.42969,0.755859 0.44708,0 0.89102,-0.02097 1.33203,-0.06445 0.39233,-0.03814 0.77097,-0.09211 1.14453,-0.154297 l 0.22461,2.033203 c -0.45006,0.09375 -0.90873,0.166007 -1.38477,0.199219 -0.52489,0.03662 -1.03714,0.05469 -1.53711,0.05469 -1.75038,0 -3.08104,-0.427834 -4.01757,-1.269531 -0.93593,-0.847062 -1.40625,-2.05578 -1.40625,-3.666016 0,-1.569141 0.43074,-2.762781 1.2832,-3.615234 0.85159,-0.851592 2.06683,-1.283203 3.67969,-1.283203 z"
           id="path3535" />
      </g>
      <g
         id="path3474">
        <path
           style="color:#000000;-inkscape-font-specification:'Cascadia Mono Bold';stroke:none;-inkscape-stroke:none"
           d="m 175.18111,25.921433 q -2.53352,0 -3.91544,-1.308217 -1.38191,-1.317429 -1.38191,-3.777245 0,-2.395326 1.17002,-3.721968 1.17924,-1.326642 3.31661,-1.326642 2.0913,0 3.23369,1.225301 1.14238,1.225302 1.14238,3.565351 0,0.663321 -0.0553,1.262153 H 171.5236 V 20.10816 h 4.77223 q 0,-0.985768 -0.5067,-1.510898 -0.49749,-0.525129 -1.40035,-0.525129 -0.97655,0 -1.52011,0.700172 -0.53434,0.69096 -0.53434,1.971538 0,1.381919 0.7923,2.100517 0.80151,0.718598 2.27556,0.718598 0.66332,0 1.30822,-0.06449 0.64489,-0.0737 1.31742,-0.193468 l 0.23954,2.358475 q -0.93971,0.16583 -1.71358,0.211894 -0.77388,0.04606 -1.37271,0.04606 z"
           id="path3539" />
        <path
           style="color:#000000;-inkscape-font-specification:'Cascadia Mono Bold';stroke:none;-inkscape-stroke:none"
           d="m 174.37109,15.636719 c -1.456,0 -2.61358,0.458833 -3.42968,1.376953 -0.80969,0.918075 -1.20703,2.200917 -1.20704,3.822265 0,1.668015 0.47266,2.976205 1.42774,3.886719 0.95054,0.899842 2.29545,1.343904 4,1.347656 0.007,1.6e-5 0.0123,0.002 0.0195,0.002 0.40307,0 0.86265,-0.01603 1.38086,-0.04687 0.52299,-0.03113 1.09939,-0.103478 1.73047,-0.214844 l 0.13867,-0.02344 -0.27148,-2.658203 -0.15821,0.02734 c -0.44543,0.07932 -0.88193,0.1446 -1.30859,0.193359 -0.42424,0.04236 -0.85433,0.0625 -1.29102,0.0625 -0.95749,0 -1.67363,-0.231907 -2.17382,-0.679687 -0.18388,-0.166774 -0.16141,-0.516814 -0.27735,-0.742188 h 5.87695 l 0.0117,-0.136718 c 0.0373,-0.40428 0.0566,-0.829002 0.0566,-1.275391 0,-1.584484 -0.38751,-2.816204 -1.18164,-3.667969 -0.79278,-0.850317 -1.9202,-1.273437 -3.34375,-1.273437 z m 0,0.300781 c 1.36486,0 2.39265,0.394319 3.12305,1.177734 0.72905,0.78197 1.10156,1.927312 1.10156,3.462891 0,0.390054 -0.0199,0.756057 -0.0488,1.111328 h -5.70898 c -0.11228,-0.318867 -0.35352,-0.520993 -0.35352,-0.945312 0,-0.215402 0.1079,-0.298922 0.13086,-0.486329 h 3.83008 v -0.15039 c 0,-0.681932 -0.17754,-1.229466 -0.54687,-1.613281 -0.36288,-0.383033 -0.87873,-0.572266 -1.50977,-0.572266 -0.68694,0 -1.24957,0.2566 -1.63867,0.757812 -0.23737,0.306949 -0.26195,0.823444 -0.34961,1.277344 h -1.02734 v 2.033203 h 1.01562 c 0.13988,0.379197 0.34966,0.70449 0.63672,0.964844 v 0.002 c 0.56843,0.509629 1.36984,0.75586 2.37695,0.75586 0.44709,0 0.88726,-0.02095 1.32227,-0.06445 h 0.002 c 0.38096,-0.04354 0.77303,-0.104468 1.16797,-0.171875 l 0.20899,2.056641 c -0.5626,0.09478 -1.09135,0.163594 -1.5586,0.191406 -0.51362,0.03057 -0.96791,0.04687 -1.36328,0.04687 -1.66315,0 -2.92451,-0.426952 -3.8125,-1.267578 -0.88747,-0.846056 -1.33594,-2.056232 -1.33594,-3.667969 0,-1.572416 0.38248,-2.772267 1.13282,-3.623046 0.75621,-0.850735 1.81125,-1.275391 3.20507,-1.275391 z m 0.0176,2.285156 c 0.57278,0 0.99057,0.161377 1.29102,0.478516 h 0.002 c 0.2726,0.282512 0.38576,0.724447 0.41602,1.255859 h -3.40235 c 0.0827,-0.382374 0.1023,-0.844786 0.29297,-1.091797 0.33564,-0.432349 0.78527,-0.642578 1.40039,-0.642578 z m -2.71484,2.035156 h 0.64258 c -0.0204,0.185598 -0.13282,0.28036 -0.13282,0.486329 0,0.353729 0.0788,0.648942 0.15625,0.945312 h -0.66601 z"
           id="path3541" />
      </g>
    </g>
    <g
       aria-label="ECE @ OST"
       id="text21509"
       style="font-size:8.1165px;font-family:'Cascadia Mono';-inkscape-font-specification:'Cascadia Mono';fill:#ffffff;stroke:#ffffff;stroke-width:0.338581">
      <g
         id="path3543">
        <path
           style="color:#000000;-inkscape-font-specification:'Cascadia Mono';stroke:none;-inkscape-stroke:none"
           d="m 136.92731,40.21751 v -5.627651 h 0.79263 v 5.627651 z m 0,0 v -0.752995 h 3.72535 v 0.752995 z m 0,-2.441291 v -0.752995 h 3.01199 v 0.752995 z m 0,-2.433364 v -0.752996 h 3.72535 v 0.752996 z"
           id="path3560" />
        <path
           style="color:#000000;-inkscape-font-specification:'Cascadia Mono';stroke:none;-inkscape-stroke:none"
           d="m 136.75781,34.419922 v 1.091797 1.341797 1.091796 1.34961 1.091797 h 0.16992 0.96094 2.9336 v -1.091797 h -2.9336 v -1.34961 h 2.2207 v -1.091796 h -2.2207 v -1.341797 h 2.9336 v -1.091797 h -2.9336 z m 0.33789,0.339844 h 0.45508 v 0.414062 h -0.45508 z m 0.79297,0 h 2.59375 v 0.414062 h -2.59375 z m -0.79297,0.751953 h 0.45508 v 1.341797 h -0.45508 z m 0,1.68164 h 0.45508 v 0.414063 h -0.45508 z m 0.79297,0 h 1.88086 v 0.414063 h -1.88086 z m -0.79297,0.751953 h 0.45508 v 1.34961 h -0.45508 z m 0,1.689454 h 0.45508 v 0.414062 h -0.45508 z m 0.79297,0 h 2.59375 v 0.414062 h -2.59375 z"
           id="path3562" />
      </g>
      <g
         id="path3545">
        <path
           style="color:#000000;-inkscape-font-specification:'Cascadia Mono';stroke:none;-inkscape-stroke:none"
           d="m 144.0134,40.296773 q -2.6236,0 -2.6236,-2.901015 0,-1.375207 0.66185,-2.128203 0.66184,-0.756959 1.86663,-0.756959 0.58258,0 1.01457,0.186268 0.43198,0.182304 0.63013,0.523133 l -0.58654,0.582581 q -0.17834,-0.269493 -0.45576,-0.416129 -0.27346,-0.146636 -0.59447,-0.146636 -0.76488,0 -1.22857,0.550876 -0.45973,0.550875 -0.45973,1.565438 0,2.211429 1.91024,2.211429 0.57465,0 1.13345,-0.237788 l 0.18231,0.697512 q -0.68959,0.269493 -1.45051,0.269493 z"
           id="path3566" />
        <path
           style="color:#000000;-inkscape-font-specification:'Cascadia Mono';stroke:none;-inkscape-stroke:none"
           d="m 143.91797,34.341797 c -0.83865,0 -1.51941,0.271494 -1.99414,0.814453 -0.47497,0.540381 -0.70313,1.296272 -0.70313,2.240234 0,0.992521 0.2243,1.763918 0.69922,2.289063 0.47493,0.525144 1.18802,0.78125 2.09375,0.78125 0.52727,0 1.03233,-0.0939 1.51172,-0.28125 l 0.14063,-0.05469 -0.26954,-1.033203 -0.18164,0.07617 c -0.35329,0.150339 -0.70665,0.224609 -1.0664,0.224609 -0.60408,0 -1.02281,-0.167819 -1.30469,-0.49414 -0.28188,-0.326321 -0.4375,-0.836058 -0.4375,-1.548828 0,-0.65 0.1488,-1.127116 0.42187,-1.455078 0.2796,-0.332166 0.62838,-0.492188 1.09766,-0.492188 0.18823,0 0.35763,0.04223 0.51563,0.126953 0.16031,0.08474 0.29013,0.203572 0.39453,0.361328 l 0.11328,0.171875 0.82617,-0.820312 -0.0664,-0.113281 C 145.55686,34.873097 145.31353,34.673641 145,34.541016 h -0.002 c -0.31303,-0.134654 -0.67436,-0.199219 -1.08008,-0.199219 z m 0,0.33789 c 0.37034,0 0.68468,0.05865 0.94726,0.171875 l 0.002,0.002 c 0.21519,0.09081 0.33989,0.225375 0.45117,0.371093 l -0.35156,0.347657 c -0.11106,-0.12519 -0.21696,-0.257368 -0.36524,-0.335938 h -0.002 c -0.20617,-0.110194 -0.4347,-0.166016 -0.67383,-0.166016 -0.55056,0 -1.01876,0.208993 -1.35742,0.611329 -0.33925,0.406502 -0.5,0.971883 -0.5,1.673828 0,0.761514 0.16466,1.358709 0.51953,1.769531 0.35487,0.410822 0.89114,0.611328 1.56055,0.611328 0.34227,0 0.67737,-0.09244 1.00976,-0.210937 l 0.0977,0.371093 c -0.39773,0.137589 -0.80631,0.230469 -1.24219,0.230469 -0.84333,0 -1.44219,-0.228062 -1.8418,-0.669922 -0.3996,-0.441859 -0.61328,-1.11906 -0.61328,-2.060547 0,-0.889645 0.2136,-1.553965 0.6211,-2.017578 0.40772,-0.466318 0.97054,-0.699219 1.73828,-0.699219 z"
           id="path3568" />
      </g>
      <g
         id="path3547">
        <path
           style="color:#000000;-inkscape-font-specification:'Cascadia Mono';stroke:none;-inkscape-stroke:none"
           d="m 146.43884,40.21751 v -5.627651 h 0.79262 v 5.627651 z m 0,0 v -0.752995 h 3.72534 v 0.752995 z m 0,-2.441291 v -0.752995 h 3.01198 v 0.752995 z m 0,-2.433364 v -0.752996 h 3.72534 v 0.752996 z"
           id="path3572" />
        <path
           style="color:#000000;-inkscape-font-specification:'Cascadia Mono';stroke:none;-inkscape-stroke:none"
           d="m 146.26953,34.419922 v 1.091797 1.341797 1.091796 1.34961 1.091797 h 0.16992 0.96094 2.93359 v -1.091797 h -2.93359 v -1.34961 h 2.21875 v -1.091796 h -2.21875 v -1.341797 h 2.93359 v -1.091797 h -2.93359 z m 0.33789,0.339844 h 0.45508 v 0.414062 h -0.45508 z m 0.79297,0 h 2.59375 v 0.414062 h -2.59375 z m -0.79297,0.751953 h 0.45508 v 1.341797 h -0.45508 z m 0,1.68164 h 0.45508 v 0.414063 h -0.45508 z m 0.79297,0 h 1.88086 v 0.414063 h -1.88086 z m -0.79297,0.751953 h 0.45508 v 1.34961 h -0.45508 z m 0,1.689454 h 0.45508 v 0.414062 h -0.45508 z m 0.79297,0 h 2.59375 v 0.414062 h -2.59375 z"
           id="path3574" />
      </g>
      <g
         id="path3549">
        <path
           style="color:#000000;-inkscape-font-specification:'Cascadia Mono';stroke:none;-inkscape-stroke:none"
           d="m 158.13009,41.180552 q -0.83623,0 -1.36332,-0.348756 -0.5271,-0.344793 -0.77678,-1.077973 -0.24571,-0.737143 -0.24571,-1.906267 0,-3.332997 2.02912,-3.332997 1.79134,0 1.79134,2.163872 0,0.356682 0,0.693548 0,0.336867 0,0.768849 h -0.68166 q 0,-0.424056 0,-0.756959 0,-0.332903 0,-0.681659 0,-1.513918 -1.10968,-1.513918 -1.36332,0 -1.36332,2.659264 0,1.379171 0.40821,2.001383 0.4082,0.618249 1.3118,0.618249 0.49539,0 0.78073,-0.09908 v 0.713365 q -0.31309,0.09908 -0.78073,0.09908 z m -0.13475,-1.549586 q -0.5271,0 -0.82037,-0.487465 -0.28931,-0.491429 -0.28931,-1.379171 0,-0.939263 0.28931,-1.398987 0.29327,-0.463686 0.82829,-0.463686 0.30517,0 0.52314,0.241751 0.22193,0.237788 0.30912,0.677696 h 0.29327 v 1.890415 h -0.29327 q -0.0713,0.439908 -0.29327,0.681659 -0.21797,0.237788 -0.54691,0.237788 z m 0.22986,-0.752995 q 0.31705,0 0.48747,-0.237788 0.17041,-0.241752 0.17041,-0.68166 0,-0.681659 -0.15456,-0.990783 -0.15456,-0.313088 -0.44784,-0.313088 -0.32497,0 -0.50331,0.26553 -0.17835,0.26553 -0.17835,0.844148 0,0.53106 0.16249,0.824332 0.16646,0.289309 0.46369,0.289309 z m 0.65788,0.673733 V 37.16986 h 0.68166 v 2.381844 z"
           id="path3578" />
        <path
           style="color:#000000;-inkscape-font-specification:'Cascadia Mono';stroke:none;-inkscape-stroke:none"
           d="m 157.77344,34.345703 c -0.72272,0 -1.30176,0.315745 -1.66602,0.914063 -0.36425,0.598317 -0.5332,1.459715 -0.5332,2.58789 0,0.791275 0.0836,1.442085 0.25586,1.958985 v 0.002 c 0.17556,0.515533 0.45659,0.910812 0.84375,1.164062 0.38575,0.255238 0.87601,0.376953 1.45703,0.376953 0.32372,10e-7 0.59824,-0.03405 0.83008,-0.107422 l 0.11914,-0.03711 v -1.074219 l -0.22461,0.07813 c -0.16155,0.05609 -0.40564,0.08984 -0.72461,0.08984 -0.56379,0 -0.93139,-0.178735 -1.17188,-0.542969 -0.24067,-0.36684 -0.3789,-1.005459 -0.3789,-1.908203 0,-0.871955 0.11595,-1.51553 0.32226,-1.917969 0.20632,-0.402438 0.47169,-0.572265 0.8711,-0.572265 0.3314,0 0.54218,0.09968 0.69531,0.308594 0.0462,0.06298 0.0401,0.225027 0.0742,0.3125 -0.15784,-0.134258 -0.33287,-0.246094 -0.53906,-0.246094 -0.40559,0 -0.75229,0.194539 -0.97266,0.542969 -0.22055,0.350469 -0.31445,0.844725 -0.31445,1.488281 0,0.610218 0.097,1.098819 0.3125,1.464844 v 0.002 c 0.21861,0.363366 0.56321,0.570312 0.96679,0.570312 0.25945,0 0.49606,-0.104061 0.66993,-0.292969 0.0246,-0.02683 0.0249,-0.07795 0.0469,-0.107421 v 0.320312 h 0.16992 0.85156 V 38.310547 37 36.677734 c 0,-0.744647 -0.15242,-1.32712 -0.48632,-1.730468 -0.33391,-0.403349 -0.84342,-0.601563 -1.47461,-0.601563 z m 0,0.337891 c 0.56303,0 0.94968,0.162527 1.21289,0.480468 0.2632,0.317942 0.4082,0.81574 0.4082,1.513672 V 37 h -0.0957 v -0.347656 h -0.25977 c -0.007,-0.494871 -0.0891,-0.902024 -0.29687,-1.185547 -0.21676,-0.295722 -0.56037,-0.447266 -0.96875,-0.447266 -0.50948,0 -0.92571,0.271878 -1.17383,0.75586 -0.24812,0.483982 -0.35938,1.17138 -0.35938,2.072265 0,0.936149 0.13194,1.630976 0.43555,2.09375 h 0.002 c 0.30378,0.460098 0.81212,0.695313 1.45313,0.695313 0.24978,0 0.42841,-0.04103 0.61133,-0.08008 v 0.378906 c -0.1715,0.04205 -0.3598,0.07617 -0.61133,0.07617 -0.53395,0 -0.95445,-0.110543 -1.27149,-0.320313 v -0.002 c -0.31523,-0.206204 -0.55163,-0.527208 -0.70898,-0.988281 v -0.002 c -0.155,-0.465791 -0.23633,-1.084803 -0.23633,-1.851563 0,-1.09382 0.17031,-1.899429 0.48242,-2.412109 0.31212,-0.512681 0.74693,-0.751953 1.37696,-0.751953 z m 0.23047,1.386718 c 0.15874,0 0.27748,0.05356 0.39648,0.185547 l 0.002,0.002 v 0.002 c 0.0897,0.09609 0.14671,0.268687 0.20118,0.443359 -0.10751,-0.0809 -0.18511,-0.216797 -0.32227,-0.216797 -0.26275,0 -0.4991,0.123315 -0.64453,0.339844 -0.15064,0.224267 -0.20703,0.534361 -0.20703,0.9375 0,0.371306 0.0543,0.672844 0.18359,0.90625 v 0.002 l 0.002,0.002 c 0.1327,0.230625 0.3563,0.373047 0.60938,0.373047 0.1491,0 0.24773,-0.110061 0.36719,-0.181641 -0.0482,0.156315 -0.0908,0.323602 -0.17383,0.414063 -0.11665,0.127256 -0.24338,0.181641 -0.42188,0.18164 -0.29921,0 -0.50336,-0.11771 -0.67578,-0.404296 -0.17026,-0.289214 -0.26562,-0.719532 -0.26562,-1.292969 0,-0.608793 0.0985,-1.046098 0.26367,-1.308594 0.17065,-0.269818 0.37777,-0.384765 0.68555,-0.384766 z m 0.27734,0.753907 c 0.13528,0 0.2107,0.04814 0.29492,0.21875 0.0808,0.161563 0.13672,0.474372 0.13672,0.916015 0,0.270553 -0.0534,0.460333 -0.13867,0.582032 -0.0847,0.118122 -0.18057,0.167968 -0.34961,0.167968 -0.1422,0 -0.22591,-0.05062 -0.31445,-0.203125 -0.0873,-0.157623 -0.14258,-0.405414 -0.14258,-0.742187 0,-0.368351 0.0632,-0.620228 0.15039,-0.75 0.0924,-0.137511 0.19274,-0.189453 0.36328,-0.189453 z m 1.01758,0.515625 h 0.0957 v 0.03125 0.599609 h -0.0957 z m 0,0.970703 h 0.0957 v 1.072265 h -0.3418 v -0.501953 h 0.2461 z"
           id="path3580" />
      </g>
      <g
         id="path3551">
        <path
           style="color:#000000;-inkscape-font-specification:'Cascadia Mono';stroke:none;-inkscape-stroke:none"
           d="m 167.20566,40.296773 q -2.07668,0 -2.07668,-2.853457 0,-2.93272 2.07668,-2.93272 2.07669,0 2.07669,2.93272 0,2.853457 -2.07669,2.853457 z m 0,-0.729217 q 1.24443,0 1.24443,-2.12424 0,-2.203503 -1.24443,-2.203503 -1.24442,0 -1.24442,2.203503 0,2.12424 1.24442,2.12424 z"
           id="path3584" />
        <path
           style="color:#000000;-inkscape-font-specification:'Cascadia Mono';stroke:none;-inkscape-stroke:none"
           d="m 167.20508,34.341797 c -0.73207,0 -1.31844,0.272461 -1.69531,0.804687 -0.37688,0.532226 -0.55079,1.299324 -0.55079,2.296875 0,0.971686 0.17503,1.721243 0.55274,2.240235 0.37771,0.518991 0.96236,0.783203 1.69336,0.783203 0.731,0 1.3176,-0.264212 1.69531,-0.783203 0.37771,-0.518992 0.55078,-1.268549 0.55078,-2.240235 0,-0.997551 -0.1739,-1.764649 -0.55078,-2.296875 -0.37687,-0.532226 -0.96324,-0.804687 -1.69531,-0.804687 z m 0,0.33789 c 0.65238,0 1.10457,0.216764 1.41992,0.66211 0.31535,0.445346 0.48828,1.143969 0.48828,2.101562 0,0.930617 -0.17181,1.608856 -0.48633,2.041016 -0.31451,0.43216 -0.76841,0.642578 -1.42187,0.642578 -0.65346,0 -1.10541,-0.210418 -1.41992,-0.642578 -0.31452,-0.43216 -0.48633,-1.110399 -0.48633,-2.041016 0,-0.957593 0.17293,-1.656216 0.48828,-2.101562 0.31535,-0.445346 0.76559,-0.66211 1.41797,-0.66211 z m 0,0.390625 c -0.46477,0 -0.84891,0.227391 -1.08008,0.636719 -0.23117,0.409329 -0.33398,0.985894 -0.33398,1.736328 0,0.724609 0.10365,1.281223 0.33593,1.677735 0.23229,0.396511 0.61516,0.615234 1.07813,0.615234 0.46297,0 0.84779,-0.218723 1.08008,-0.615234 0.23228,-0.396512 0.33398,-0.953126 0.33398,-1.677735 0,-0.750434 -0.10086,-1.326999 -0.33203,-1.736328 -0.23117,-0.409328 -0.61726,-0.636719 -1.08203,-0.636719 z m 0,0.337891 c 0.36485,0 0.60347,0.139672 0.78711,0.464844 0.18364,0.325172 0.28906,0.851747 0.28906,1.570312 0,0.691551 -0.10654,1.196245 -0.28906,1.507813 -0.18253,0.311568 -0.42047,0.447265 -0.78711,0.447265 -0.36664,0 -0.60459,-0.135697 -0.78711,-0.447265 -0.18252,-0.311568 -0.28711,-0.816262 -0.28711,-1.507813 0,-0.718566 0.10542,-1.24514 0.28906,-1.570312 0.18364,-0.325172 0.42031,-0.464844 0.78516,-0.464844 z"
           id="path3586" />
      </g>
      <g
         id="path3553">
        <path
           style="color:#000000;-inkscape-font-specification:'Cascadia Mono';stroke:none;-inkscape-stroke:none"
           d="m 171.76723,40.296773 q -0.47954,0 -0.89963,-0.07926 -0.41613,-0.0753 -0.77281,-0.229862 l 0.10304,-0.800553 q 0.43595,0.186268 0.84019,0.285346 0.4082,0.09511 0.79262,0.09511 0.55484,0 0.82434,-0.194193 0.26949,-0.194194 0.26949,-0.590508 0,-0.503318 -0.51521,-0.737143 l -0.97493,-0.443871 q -0.57465,-0.261567 -0.88378,-0.630138 -0.30516,-0.368572 -0.30516,-0.915484 0,-0.737143 0.44387,-1.141383 0.44387,-0.40424 1.25631,-0.40424 0.56673,0 1.00268,0.166452 0.43594,0.166452 0.84018,0.542949 l -0.55484,0.562765 q -0.34875,-0.285345 -0.65391,-0.412166 -0.3012,-0.130783 -0.63014,-0.130783 -0.40821,0 -0.6341,0.198157 -0.22194,0.194193 -0.22194,0.578617 0,0.273457 0.14664,0.447835 0.14663,0.170414 0.43198,0.305161 l 0.82433,0.388387 q 0.62617,0.293272 0.95115,0.661844 0.32498,0.368571 0.32498,0.947189 0,0.764885 -0.49936,1.149309 -0.49539,0.380461 -1.50599,0.380461 z"
           id="path3590" />
        <path
           style="color:#000000;-inkscape-font-specification:'Cascadia Mono';stroke:none;-inkscape-stroke:none"
           d="m 171.94531,34.341797 c -0.5697,0 -1.03521,0.143151 -1.36914,0.447265 -0.33379,0.303986 -0.5,0.742171 -0.5,1.267579 0,0.396094 0.11408,0.74604 0.34375,1.023437 0.22661,0.270179 0.54339,0.493725 0.94336,0.675781 l 0.97656,0.44336 c 0.30185,0.136991 0.41602,0.306203 0.41602,0.583984 0,0.225837 -0.0639,0.355596 -0.19922,0.453125 -0.13496,0.09725 -0.37642,0.162109 -0.72656,0.162109 -0.24232,0 -0.49321,-0.03106 -0.75391,-0.0918 -0.25866,-0.06354 -0.53009,-0.154728 -0.8125,-0.275391 l -0.20508,-0.08789 -0.14843,1.148438 0.11718,0.05078 c 0.25007,0.108363 0.52027,0.189875 0.8086,0.242188 0.29159,0.05502 0.60262,0.08203 0.93164,0.08203 0.69498,0 1.23501,-0.128503 1.60937,-0.416016 0.37591,-0.289389 0.56446,-0.736439 0.56446,-1.283203 0,-0.417439 -0.12147,-0.78187 -0.36719,-1.060547 -0.23759,-0.269464 -0.57393,-0.500828 -1.00586,-0.703125 l -0.82422,-0.386719 c -0.17544,-0.08284 -0.29827,-0.174496 -0.375,-0.263671 -0.069,-0.08268 -0.10547,-0.186644 -0.10547,-0.337891 0,-0.223704 0.0578,-0.358164 0.16406,-0.451172 0.11259,-0.09877 0.27674,-0.15625 0.52149,-0.15625 0.19686,0 0.38235,0.03897 0.5625,0.117188 l 0.002,0.002 h 0.002 c 0.183,0.07605 0.38805,0.204029 0.61133,0.386718 l 0.11914,0.09766 0.78516,-0.796875 -0.12695,-0.119141 c -0.2826,-0.263203 -0.58241,-0.456252 -0.89649,-0.576172 -0.31347,-0.119687 -0.6681,-0.177734 -1.0625,-0.177734 z m 0,0.33789 c 0.36125,0 0.67557,0.054 0.94336,0.15625 0.21672,0.08275 0.42715,0.240006 0.63672,0.41211 l -0.31836,0.320312 c -0.19168,-0.143694 -0.37991,-0.278282 -0.56055,-0.353515 h -0.002 c -0.22092,-0.09564 -0.45423,-0.144532 -0.69531,-0.144532 -0.29953,0 -0.5575,0.07479 -0.7461,0.240235 -0.18962,0.165916 -0.27929,0.416217 -0.27929,0.705078 0,0.212565 0.0617,0.40898 0.1875,0.558594 0.11877,0.138043 0.28325,0.250839 0.48828,0.347656 l 0.82422,0.388672 c 0.40296,0.188732 0.70077,0.399129 0.89648,0.621094 0.18759,0.212751 0.28321,0.481886 0.28321,0.835937 0,0.473082 -0.1437,0.790496 -0.4336,1.013672 -0.28615,0.219768 -0.74985,0.345703 -1.40234,0.345703 -0.31037,0 -0.60062,-0.02551 -0.86914,-0.07617 -0.22281,-0.04032 -0.42319,-0.108516 -0.61719,-0.183594 l 0.0586,-0.453125 c 0.22285,0.08599 0.44592,0.170626 0.65821,0.222657 H 171 c 0.28357,0.06607 0.55984,0.09961 0.83008,0.09961 0.38964,0 0.69945,-0.06489 0.92383,-0.226562 0.22397,-0.161397 0.33984,-0.423982 0.33984,-0.726563 0,-0.392725 -0.23117,-0.71567 -0.61523,-0.890625 l -0.97461,-0.445312 c -0.36566,-0.166436 -0.63672,-0.363162 -0.82227,-0.583985 -0.17721,-0.214032 -0.26758,-0.473519 -0.26758,-0.80664 0,-0.457449 0.13064,-0.782578 0.38867,-1.017579 0.2579,-0.234871 0.62903,-0.359375 1.14258,-0.359375 z"
           id="path3592" />
      </g>
      <g
         id="path3555">
        <path
           style="color:#000000;-inkscape-font-specification:'Cascadia Mono';stroke:none;-inkscape-stroke:none"
           d="m 176.32087,40.21751 v -5.627651 h 0.79263 v 5.627651 z m -1.66451,-4.874655 v -0.752996 h 4.12166 v 0.752996 z"
           id="path3596" />
        <path
           style="color:#000000;-inkscape-font-specification:'Cascadia Mono';stroke:none;-inkscape-stroke:none"
           d="m 174.48633,34.419922 v 1.091797 h 0.16992 1.49609 v 4.875 h 0.16797 0.96289 v -4.875 h 1.66407 v -1.091797 h -1.66407 -1.13086 z m 0.33984,0.339844 h 1.32617 v 0.414062 h -1.32617 z m 1.66406,0 h 0.45313 v 0.414062 h -0.45313 z m 0.79297,0 h 1.32617 v 0.414062 h -1.32617 z m -0.79297,0.751953 h 0.45313 v 4.537109 h -0.45313 z"
           id="path3598" />
      </g>
    </g>
  </g>
</svg>
