<?xml version="1.0" encoding="UTF-8" standalone="no"?>
<!-- Created with Inkscape (http://www.inkscape.org/) -->

<svg
   width="700"
   height="200"
   viewBox="0 0 185.20835 52.916668"
   version="1.1"
   id="svg1698"
   inkscape:version="1.1.2 (b8e25be833, 2022-02-05)"
   sodipodi:docname="design.svg"
   xmlns:inkscape="http://www.inkscape.org/namespaces/inkscape"
   xmlns:sodipodi="http://sodipodi.sourceforge.net/DTD/sodipodi-0.dtd"
   xmlns:xlink="http://www.w3.org/1999/xlink"
   xmlns="http://www.w3.org/2000/svg"
   xmlns:svg="http://www.w3.org/2000/svg">
  <sodipodi:namedview
     id="namedview1700"
     pagecolor="#ffffff"
     bordercolor="#666666"
     borderopacity="1.0"
     inkscape:pageshadow="2"
     inkscape:pageopacity="0.0"
     inkscape:pagecheckerboard="0"
     inkscape:document-units="mm"
     showgrid="false"
     units="px"
     inkscape:showpageshadow="false"
     inkscape:zoom="1.4142136"
     inkscape:cx="363.80643"
     inkscape:cy="130.10764"
     inkscape:window-width="1920"
     inkscape:window-height="1017"
     inkscape:window-x="-8"
     inkscape:window-y="-8"
     inkscape:window-maximized="1"
     inkscape:current-layer="layer2"
     showborder="false"
     fit-margin-top="0"
     fit-margin-left="0"
     fit-margin-right="0"
     fit-margin-bottom="0" />
  <defs
     id="defs1695" />
  <g
     inkscape:label="design"
     inkscape:groupmode="layer"
     id="layer1"
     style="display:none">
    <path
       id="rect7762"
       style="vector-effect:non-scaling-stroke;stroke-width:0.00350022;-inkscape-stroke:hairline"
       d="m 23.588989,15.875 c -2.357963,0 -4.639102,1.436354 -4.639102,6.554639 v 4.028694 h 7.508446 V 15.875 Z"
       sodipodi:nodetypes="sscccs" />
    <rect
       style="vector-effect:non-scaling-stroke;fill:#000000;fill-opacity:1;stroke:none;stroke-width:0.00350023;stroke-linecap:butt;stroke-linejoin:miter;stroke-miterlimit:4;stroke-dasharray:none;stroke-opacity:1;-inkscape-stroke:hairline"
       id="rect5719"
       width="2.0032427"
       height="5.8276401"
       x="25.456711"
       y="3.6956353"
       inkscape:transform-center-y="-18.191443" />
    <rect
       style="vector-effect:non-scaling-stroke;fill:#000000;fill-opacity:1;stroke:none;stroke-width:0.00350023;stroke-linecap:butt;stroke-linejoin:miter;stroke-miterlimit:4;stroke-dasharray:none;stroke-opacity:1;-inkscape-stroke:hairline"
       id="rect7400"
       width="2.0032427"
       height="5.8276401"
       x="0.17036295"
       y="15.140485"
       inkscape:transform-center-y="-12.863293"
       transform="rotate(-45)"
       inkscape:transform-center-x="12.863293" />
    <rect
       style="vector-effect:non-scaling-stroke;fill:#000000;fill-opacity:1;stroke:none;stroke-width:0.00350023;stroke-linecap:butt;stroke-linejoin:miter;stroke-miterlimit:4;stroke-dasharray:none;stroke-opacity:1;-inkscape-stroke:hairline"
       id="rect7402"
       width="2.0032427"
       height="5.8276401"
       x="-25.802519"
       y="5.3530707"
       inkscape:transform-center-y="-1.1491891e-06"
       transform="rotate(-90)"
       inkscape:transform-center-x="18.191443" />
    <rect
       style="vector-effect:non-scaling-stroke;fill:#000000;fill-opacity:1;stroke:none;stroke-width:0.00350023;stroke-linecap:butt;stroke-linejoin:miter;stroke-miterlimit:4;stroke-dasharray:none;stroke-opacity:1;-inkscape-stroke:hairline"
       id="rect7404"
       width="2.0032427"
       height="5.8276401"
       x="35.244122"
       y="-22.277245"
       inkscape:transform-center-y="-12.863294"
       transform="rotate(45)"
       inkscape:transform-center-x="-12.863293" />
    <rect
       style="vector-effect:non-scaling-stroke;fill:#000000;fill-opacity:1;stroke:none;stroke-width:0.00350023;stroke-linecap:butt;stroke-linejoin:miter;stroke-miterlimit:4;stroke-dasharray:none;stroke-opacity:1;-inkscape-stroke:hairline"
       id="rect7406"
       width="2.0032427"
       height="5.8276401"
       x="23.799278"
       y="-47.563595"
       transform="rotate(90)"
       inkscape:transform-center-x="-18.191444" />
    <path
       id="rect7430"
       style="vector-effect:non-scaling-stroke;fill:#000000;fill-opacity:1;stroke:none;stroke-width:0.00350022;stroke-linecap:butt;stroke-linejoin:miter;stroke-miterlimit:4;stroke-dasharray:none;stroke-opacity:1;-inkscape-stroke:hairline"
       d="m 18.949887,26.458333 v 7.9375 h -2.002253 v 2.645833 h 18.520834 v -2.645833 h -1.50169 v -7.9375 z"
       sodipodi:nodetypes="ccccccccc" />
    <path
       id="path9116"
       style="vector-effect:non-scaling-stroke;stroke-width:0.00350023;-inkscape-stroke:hairline"
       d="m 29.327677,15.875 c 2.357963,0 4.639101,1.436354 4.639101,6.554639 v 4.028694 H 26.458333 V 15.875 Z"
       sodipodi:nodetypes="sscccs" />
    <path
       id="rect9141"
       style="vector-effect:non-scaling-stroke;fill:#ffffff;fill-opacity:1;stroke:none;stroke-width:0.00350023;stroke-linecap:butt;stroke-linejoin:miter;stroke-miterlimit:4;stroke-dasharray:none;stroke-opacity:1;-inkscape-stroke:hairline"
       d="m 22.006299,22.81769 -0.748275,0.748275 3.613216,3.613215 v 11.694377 h 1.058333 v -10.636043 -1.49655 l -0.876432,-0.876432 z"
       sodipodi:nodetypes="ccccccccc" />
    <rect
       style="vector-effect:non-scaling-stroke;fill:#000000;fill-opacity:1;stroke:none;stroke-width:0.00350023;stroke-linecap:butt;stroke-linejoin:miter;stroke-miterlimit:4;stroke-dasharray:none;stroke-opacity:1;-inkscape-stroke:hairline"
       id="rect9586"
       width="3.175"
       height="15.875"
       x="21.695831"
       y="37.041668" />
    <rect
       style="vector-effect:non-scaling-stroke;fill:#000000;fill-opacity:1;stroke:none;stroke-width:0.00350023;stroke-linecap:butt;stroke-linejoin:miter;stroke-miterlimit:4;stroke-dasharray:none;stroke-opacity:1;-inkscape-stroke:hairline"
       id="rect9830"
       width="3.175"
       height="11.1125"
       x="28.045828"
       y="37.041668" />
    <path
       id="rect11556"
       style="vector-effect:non-scaling-stroke;fill:#ffffff;fill-opacity:1;stroke:none;stroke-width:0.00350023;stroke-linecap:butt;stroke-linejoin:miter;stroke-miterlimit:4;stroke-dasharray:none;stroke-opacity:1;-inkscape-stroke:hairline"
       d="m 23.812906,12.855508 v 10.272241 l 1.058333,1.058333 2.116667,2.116667 v 12.570809 h 1.058333 V 25.864533 l -3.175,-3.175 v -9.834025 z" />
    <use
       x="0"
       y="0"
       xlink:href="#g13910"
       id="use13920"
       transform="translate(-1.7326361,-9.859536)"
       width="100%"
       height="100%" />
    <path
       id="path15859"
       style="vector-effect:non-scaling-stroke;fill:#ffffff;fill-opacity:1;stroke:none;stroke-width:0.0132292;stroke-linecap:butt;stroke-linejoin:miter;stroke-miterlimit:4;stroke-dasharray:none;stroke-opacity:1;-inkscape-stroke:hairline"
       d="M 116.85938,101.52148 114,104.38086 l -4,4 v 5.6582 11.97461 l 4,0.0449 v -16.01953 l 4.51562,-4.51758 h 14.77344 v -4 z"
       transform="scale(0.26458333)" />
    <use
       x="0"
       y="0"
       xlink:href="#g13910"
       id="use13912"
       transform="translate(6.3500004)"
       width="100%"
       height="100%" />
    <path
       id="path16375"
       style="vector-effect:non-scaling-stroke;fill:#ffffff;fill-opacity:1;stroke:none;stroke-width:0.00350023;stroke-linecap:butt;stroke-linejoin:miter;stroke-miterlimit:4;stroke-dasharray:none;stroke-opacity:1;-inkscape-stroke:hairline"
       d="m 25.929572,11.979077 v 10.272241 l 1.058334,1.058333 2.116666,2.116667 h 2.952533 l 0.21911,-1.058334 h -2.733427 l -2.554882,-2.554882 v -9.834025 z"
       sodipodi:nodetypes="cccccccccc" />
    <use
       x="0"
       y="0"
       xlink:href="#g13910"
       id="use13922"
       transform="translate(8.5639076,-8.0580874)"
       width="100%"
       height="100%" />
    <path
       id="path18357"
       style="vector-effect:non-scaling-stroke;fill:#ffffff;fill-opacity:1;stroke:none;stroke-width:0.0132292;stroke-linecap:butt;stroke-linejoin:miter;stroke-miterlimit:4;stroke-dasharray:none;stroke-opacity:1;-inkscape-stroke:hairline"
       d="m 68.9375,97.521484 v 3.999996 h 12.548828 l 4.515625,4.51758 v 18.39844 h 4 v -14.39844 -5.6582 l -4,-4 -2.859375,-2.859376 z"
       transform="scale(0.26458333)" />
    <g
       id="g13910"
       transform="translate(-0.01306581)">
      <circle
         style="vector-effect:non-scaling-stroke;fill:#ffffff;fill-opacity:1;stroke:none;stroke-width:0.00350023;stroke-linecap:butt;stroke-linejoin:miter;stroke-miterlimit:4;stroke-dasharray:none;stroke-opacity:1;-inkscape-stroke:hairline"
         id="path13620"
         cx="23.296394"
         cy="32.955238"
         r="1.0583333" />
      <circle
         style="vector-effect:non-scaling-stroke;fill:#000000;fill-opacity:1;stroke:none;stroke-width:0.00350023;stroke-linecap:butt;stroke-linejoin:miter;stroke-miterlimit:4;stroke-dasharray:none;stroke-opacity:1;-inkscape-stroke:hairline"
         id="path13646"
         cx="23.296394"
         cy="32.955238"
         r="0.52916664" />
    </g>
    <text
       xml:space="preserve"
       style="font-style:normal;font-variant:normal;font-weight:bold;font-stretch:normal;font-size:18.8678px;line-height:1.25;font-family:'Cascadia Mono';-inkscape-font-specification:'Cascadia Mono Bold';display:inline;fill:#000000;fill-opacity:1;stroke:none;stroke-width:0.30053;stroke-opacity:1"
       x="58.233921"
       y="25.737177"
       id="text3217"><tspan
         sodipodi:role="line"
         id="tspan3215"
         style="font-style:normal;font-variant:normal;font-weight:bold;font-stretch:normal;font-size:18.8678px;font-family:'Cascadia Mono';-inkscape-font-specification:'Cascadia Mono Bold';fill:#000000;fill-opacity:1;stroke:none;stroke-width:0.30053;stroke-opacity:1"
         x="58.233921"
         y="25.737177">eMakerspace</tspan></text>
    <text
       xml:space="preserve"
       style="font-style:normal;font-variant:normal;font-weight:normal;font-stretch:normal;font-size:8.1165px;line-height:1.25;font-family:'Cascadia Mono';-inkscape-font-specification:'Cascadia Mono';display:inline;fill:#000000;fill-opacity:1;stroke:none;stroke-width:0.338581;stroke-opacity:1"
       x="136.29321"
       y="40.21751"
       id="text3221"><tspan
         sodipodi:role="line"
         id="tspan3219"
         style="font-style:normal;font-variant:normal;font-weight:normal;font-stretch:normal;font-size:8.1165px;font-family:'Cascadia Mono';-inkscape-font-specification:'Cascadia Mono';fill:#000000;fill-opacity:1;stroke:none;stroke-width:0.338581;stroke-opacity:1"
         x="136.29321"
         y="40.21751">ECE @ OST</tspan></text>
  </g>
  <g
     inkscape:groupmode="layer"
     id="layer2"
     inkscape:label="merged"
     style="display:inline">
    <rect
       style="fill:#000000;fill-opacity:1;stroke:none;stroke-width:0.481762;stroke-linecap:round;stroke-opacity:1"
       id="rect1089"
       width="185.20833"
       height="52.916668"
       x="0"
       y="0" />
    <path
       id="path3476"
       style="display:inline;vector-effect:non-scaling-stroke;stroke-width:0.0132292;-inkscape-stroke:hairline;fill:#ffffff;fill-opacity:1"
       d="M 89.154297 60 C 80.242311 60 71.621094 65.428738 71.621094 84.773438 L 71.621094 97.521484 L 83.142578 97.521484 L 86.001953 100.38086 L 90.001953 104.38086 L 90.001953 110.03906 L 90.001953 121.09375 A 3.9999998 3.9999998 0 0 1 92 124.55469 A 3.9999998 3.9999998 0 0 1 88 128.55469 A 3.9999998 3.9999998 0 0 1 84 124.55469 A 3.9999998 3.9999998 0 0 1 86.001953 121.0918 L 86.001953 106.03906 L 81.486328 101.52148 L 71.621094 101.52148 L 71.621094 130 L 64.054688 130 L 64.054688 140 L 82 140 L 82 200 L 94 200 L 94 140 L 94.001953 140 L 94.001953 102.72461 L 82.332031 91.054688 A 3.9999994 3.9999994 0 0 1 81.451172 91.291016 A 3.9999994 3.9999994 0 0 1 77.451172 87.291016 A 3.9999994 3.9999994 0 0 1 81.451172 83.291016 A 3.9999994 3.9999994 0 0 1 85.451172 87.291016 A 3.9999994 3.9999994 0 0 1 85.191406 88.257812 L 94.689453 97.755859 L 98.001953 101.06836 L 98.001953 106.72461 L 98.001953 140 L 102.00195 140 L 102.00195 99.412109 L 94.001953 91.412109 L 90.001953 87.412109 L 90.001953 60 L 89.154297 60 z M 94.001953 60 L 94.001953 85.755859 L 106.00195 97.755859 L 106.00195 146.92383 L 106 146.92383 L 106 182 L 118 182 L 118 140 L 134.05469 140 L 134.05469 130 L 128.37891 130 L 128.37891 105.52148 L 118.51562 105.52148 L 114 110.03906 L 114 121.0918 A 3.9999997 3.9999997 0 0 1 116 124.55469 A 3.9999997 3.9999997 0 0 1 112 128.55469 A 3.9999997 3.9999997 0 0 1 108 124.55469 A 3.9999997 3.9999997 0 0 1 110 121.0918 L 110 114.03906 L 110 108.38086 L 114 104.38086 L 116.85938 101.52148 L 128.37891 101.52148 L 128.37891 100 L 128.37891 84.773438 C 128.37891 65.428738 119.75769 60 110.8457 60 L 102.00195 60 L 102.00195 82.443359 L 111.6582 92.099609 L 116.9043 92.099609 A 3.9999995 3.9999995 0 0 1 118.36133 90.640625 A 3.9999996 3.9999996 0 0 1 118.36719 90.636719 A 3.9999996 3.9999996 0 0 1 118.375 90.632812 A 3.9999995 3.9999995 0 0 1 120.36719 90.099609 A 3.9999995 3.9999995 0 0 1 121.06055 90.160156 A 3.9999996 3.9999996 0 0 1 121.0625 90.160156 A 3.9999995 3.9999995 0 0 1 121.06445 90.160156 A 3.9999995 3.9999995 0 0 1 121.71094 90.333984 A 3.9999996 3.9999996 0 0 1 121.76172 90.351562 A 3.9999995 3.9999995 0 0 1 122.35547 90.628906 A 3.9999996 3.9999996 0 0 1 122.36719 90.634766 A 3.9999995 3.9999995 0 0 1 122.37695 90.642578 A 3.9999995 3.9999995 0 0 1 122.92969 91.027344 A 3.9999996 3.9999996 0 0 1 122.93945 91.035156 A 3.9999995 3.9999995 0 0 1 122.94531 91.041016 A 3.9999995 3.9999995 0 0 1 123.43164 91.529297 A 3.9999995 3.9999995 0 0 1 123.82422 92.089844 A 3.9999995 3.9999995 0 0 1 123.83789 92.111328 A 3.9999995 3.9999995 0 0 1 124.11523 92.705078 A 3.9999996 3.9999996 0 0 1 124.13281 92.755859 A 3.9999995 3.9999995 0 0 1 124.30664 93.402344 A 3.9999996 3.9999996 0 0 1 124.30664 93.404297 A 3.9999995 3.9999995 0 0 1 124.30664 93.40625 A 3.9999995 3.9999995 0 0 1 124.36719 94.099609 A 3.9999995 3.9999995 0 0 1 123.83398 96.095703 A 3.9999995 3.9999995 0 0 1 123.82812 96.103516 A 3.9999995 3.9999995 0 0 1 122.37109 97.560547 A 3.9999996 3.9999996 0 0 1 122.36719 97.564453 A 3.9999995 3.9999995 0 0 1 122.36328 97.566406 A 3.9999995 3.9999995 0 0 1 120.36719 98.099609 A 3.9999995 3.9999995 0 0 1 118.375 97.566406 A 3.9999996 3.9999996 0 0 1 118.36719 97.5625 A 3.9999995 3.9999995 0 0 1 118.36133 97.558594 A 3.9999995 3.9999995 0 0 1 116.9043 96.099609 L 110.00195 96.099609 L 102.00195 88.099609 L 98.001953 84.099609 L 98.001953 60 L 94.001953 60 z "
       transform="scale(0.26458333)" />
    <rect
       style="display:inline;vector-effect:non-scaling-stroke;fill:#ffffff;fill-opacity:1;stroke:none;stroke-width:0.00350023;stroke-linecap:butt;stroke-linejoin:miter;stroke-miterlimit:4;stroke-dasharray:none;stroke-opacity:1;-inkscape-stroke:hairline"
       id="rect3478"
       width="2.0032427"
       height="5.8276401"
       x="25.456711"
       y="3.6956353"
       inkscape:transform-center-y="-18.191443" />
    <rect
       style="display:inline;vector-effect:non-scaling-stroke;fill:#ffffff;fill-opacity:1;stroke:none;stroke-width:0.00350023;stroke-linecap:butt;stroke-linejoin:miter;stroke-miterlimit:4;stroke-dasharray:none;stroke-opacity:1;-inkscape-stroke:hairline"
       id="rect3480"
       width="2.0032427"
       height="5.8276401"
       x="0.17036295"
       y="15.140485"
       inkscape:transform-center-y="-12.863293"
       transform="rotate(-45)"
       inkscape:transform-center-x="12.863293" />
    <rect
       style="display:inline;vector-effect:non-scaling-stroke;fill:#ffffff;fill-opacity:1;stroke:none;stroke-width:0.00350023;stroke-linecap:butt;stroke-linejoin:miter;stroke-miterlimit:4;stroke-dasharray:none;stroke-opacity:1;-inkscape-stroke:hairline"
       id="rect3482"
       width="2.0032427"
       height="5.8276401"
       x="-25.802519"
       y="5.3530707"
       inkscape:transform-center-y="-1.1491891e-06"
       transform="rotate(-90)"
       inkscape:transform-center-x="18.191443" />
    <rect
       style="display:inline;vector-effect:non-scaling-stroke;fill:#ffffff;fill-opacity:1;stroke:none;stroke-width:0.00350023;stroke-linecap:butt;stroke-linejoin:miter;stroke-miterlimit:4;stroke-dasharray:none;stroke-opacity:1;-inkscape-stroke:hairline"
       id="rect3484"
       width="2.0032427"
       height="5.8276401"
       x="35.244122"
       y="-22.277245"
       inkscape:transform-center-y="-12.863294"
       transform="rotate(45)"
       inkscape:transform-center-x="-12.863293" />
    <rect
       style="display:inline;vector-effect:non-scaling-stroke;fill:#ffffff;fill-opacity:1;stroke:none;stroke-width:0.00350023;stroke-linecap:butt;stroke-linejoin:miter;stroke-miterlimit:4;stroke-dasharray:none;stroke-opacity:1;-inkscape-stroke:hairline"
       id="rect3486"
       width="2.0032427"
       height="5.8276401"
       x="23.799278"
       y="-47.563595"
       transform="rotate(90)"
       inkscape:transform-center-x="-18.191444" />
    <circle
       style="vector-effect:non-scaling-stroke;fill:#ffffff;fill-opacity:1;stroke:none;stroke-width:0.00350023;stroke-linecap:butt;stroke-linejoin:miter;stroke-miterlimit:4;stroke-dasharray:none;stroke-opacity:1;-inkscape-stroke:hairline"
       id="circle3769"
       cx="21.550692"
       cy="23.095703"
       r="0.52916664" />
    <circle
       style="vector-effect:non-scaling-stroke;fill:#ffffff;fill-opacity:1;stroke:none;stroke-width:0.00350023;stroke-linecap:butt;stroke-linejoin:miter;stroke-miterlimit:4;stroke-dasharray:none;stroke-opacity:1;-inkscape-stroke:hairline"
       id="circle3782"
       cx="29.633329"
       cy="32.955238"
       r="0.52916664" />
    <circle
       style="vector-effect:non-scaling-stroke;fill:#ffffff;fill-opacity:1;stroke:none;stroke-width:0.00350023;stroke-linecap:butt;stroke-linejoin:miter;stroke-miterlimit:4;stroke-dasharray:none;stroke-opacity:1;-inkscape-stroke:hairline"
       id="circle3799"
       cx="31.847237"
       cy="24.897152"
       r="0.52916664" />
    <circle
       style="vector-effect:non-scaling-stroke;fill:#ffffff;fill-opacity:1;stroke:none;stroke-width:0.00350023;stroke-linecap:butt;stroke-linejoin:miter;stroke-miterlimit:4;stroke-dasharray:none;stroke-opacity:1;-inkscape-stroke:hairline"
       id="circle3514"
       cx="23.283329"
       cy="32.955238"
       r="0.52916664" />
    <text
       xml:space="preserve"
       style="font-style:normal;font-variant:normal;font-weight:bold;font-stretch:normal;font-size:18.8678px;line-height:1.25;font-family:'Cascadia Mono';-inkscape-font-specification:'Cascadia Mono Bold';display:inline;fill:#ffffff;fill-opacity:1;stroke:none;stroke-width:0.30053;stroke-opacity:1"
       x="58.233921"
       y="25.737177"
       id="text3520"><tspan
         sodipodi:role="line"
         id="tspan3518"
         style="font-style:normal;font-variant:normal;font-weight:bold;font-stretch:normal;font-size:18.8678px;font-family:'Cascadia Mono';-inkscape-font-specification:'Cascadia Mono Bold';fill:#ffffff;fill-opacity:1;stroke:none;stroke-width:0.30053;stroke-opacity:1"
         x="58.233921"
         y="25.737177">eMakerspace</tspan></text>
    <text
       xml:space="preserve"
       style="font-style:normal;font-variant:normal;font-weight:normal;font-stretch:normal;font-size:8.1165px;line-height:1.25;font-family:'Cascadia Mono';-inkscape-font-specification:'Cascadia Mono';display:inline;fill:#ffffff;fill-opacity:1;stroke:none;stroke-width:0.338581;stroke-opacity:1"
       x="136.29321"
       y="40.21751"
       id="text3524"><tspan
         sodipodi:role="line"
         id="tspan3522"
         style="font-style:normal;font-variant:normal;font-weight:normal;font-stretch:normal;font-size:8.1165px;font-family:'Cascadia Mono';-inkscape-font-specification:'Cascadia Mono';fill:#ffffff;fill-opacity:1;stroke:none;stroke-width:0.338581;stroke-opacity:1"
         x="136.29321"
         y="40.21751">ECE @ OST</tspan></text>
    <circle
       style="vector-effect:non-scaling-stroke;fill:#ffffff;fill-opacity:1;stroke:none;stroke-width:0.00350023;stroke-linecap:butt;stroke-linejoin:miter;stroke-miterlimit:4;stroke-dasharray:none;stroke-opacity:1;-inkscape-stroke:hairline"
       id="circle3790"
       cx="31.847237"
       cy="24.897152"
       r="0.52916664" />
  </g>
</svg>
